solid export/file
facet normal 0.0 0.0 -1.0
outer loop
vertex -10.0 17.320507 0.0
vertex -10.0 117.32051 0.0
vertex 10.0 94.2265 0.0
endloop
endfacet
facet normal 0.0 0.0 -1.0
outer loop
vertex -10.0 17.320507 0.0
vertex 10.0 94.2265 0.0
vertex 10.0 -5.773502 0.0
endloop
endfacet
facet normal 0.0 0.0 -1.0
outer loop
vertex -20.0 -1.9073486E-6 0.0
vertex -106.60255 49.999996 0.0
vertex -96.60255 67.3205 0.0
endloop
endfacet
facet normal 0.0 0.0 -1.0
outer loop
vertex -20.0 -1.9073486E-6 0.0
vertex -96.60255 67.3205 0.0
vertex -10.0 17.320507 0.0
endloop
endfacet
facet normal 0.0 0.0 -0.99999994
outer loop
vertex 10.0 -5.7735023 0.0
vertex -76.60254 -55.773506 0.0
vertex -106.60254 -50.000008 0.0
endloop
endfacet
facet normal 0.0 0.0 -0.99999994
outer loop
vertex 10.0 -5.7735023 0.0
vertex -106.60254 -50.000008 0.0
vertex -20.0 -9.536743E-7 0.0
endloop
endfacet
facet normal 0.0 0.0 1.0
outer loop
vertex 10.0 -5.773502 0.0
vertex -10.0 17.320507 0.0
vertex -20.0 -9.536743E-7 0.0
endloop
endfacet
endsolid export/file
