solid /home/benoit/Documents/WORK/2022/Emilie_Perotto/code/project/main/data/data2
facet normal 1.0 0.0 0.0
outer loop
vertex -1.5 12.52 6.0
vertex -1.5 9.54 9.0
vertex -1.5 1.5 0.0
endloop
endfacet
facet normal 1.0 0.0 0.0
outer loop
vertex -1.5 2.76 21.0
vertex -1.5 1.5 0.0
vertex -1.5 9.54 9.0
endloop
endfacet
facet normal 1.0 0.0 0.0
outer loop
vertex -1.5 1.5 0.0
vertex -1.5 2.76 21.0
vertex -1.5 1.5 30.0
endloop
endfacet
facet normal 1.0 0.0 0.0
outer loop
vertex -1.5 2.16 27.0
vertex -1.5 1.5 30.0
vertex -1.5 2.76 21.0
endloop
endfacet
facet normal 1.0 0.0 0.0
outer loop
vertex -1.5 1.5 30.0
vertex -1.5 2.16 27.0
vertex -1.5 2.16 30.0
endloop
endfacet
facet normal 1.0 0.0 0.0
outer loop
vertex -1.5 2.53 24.0
vertex -1.5 2.53 27.0
vertex -1.5 2.16 27.0
endloop
endfacet
facet normal 1.0 0.0 0.0
outer loop
vertex -1.5 2.53 24.0
vertex -1.5 2.16 27.0
vertex -1.5 2.76 21.0
endloop
endfacet
facet normal 1.0 0.0 0.0
outer loop
vertex -1.5 2.53 24.0
vertex -1.5 2.76 21.0
vertex -1.5 2.76 24.0
endloop
endfacet
facet normal 1.0 0.0 0.0
outer loop
vertex -1.5 9.54 12.0
vertex -1.5 8.74 12.0
vertex -1.5 9.54 9.0
endloop
endfacet
facet normal 1.0 0.0 0.0
outer loop
vertex -1.5 6.95 15.0
vertex -1.5 9.54 9.0
vertex -1.5 8.74 12.0
endloop
endfacet
facet normal 1.0 0.0 0.0
outer loop
vertex -1.5 9.54 9.0
vertex -1.5 6.95 15.0
vertex -1.5 2.76 21.0
endloop
endfacet
facet normal 1.0 0.0 0.0
outer loop
vertex -1.5 5.78 18.0
vertex -1.5 2.76 21.0
vertex -1.5 6.95 15.0
endloop
endfacet
facet normal 1.0 0.0 0.0
outer loop
vertex -1.5 2.76 21.0
vertex -1.5 5.78 18.0
vertex -1.5 5.78 21.0
endloop
endfacet
facet normal 1.0 0.0 0.0
outer loop
vertex -1.5 15.63 3.0
vertex -1.5 15.63 6.0
vertex -1.5 12.52 6.0
endloop
endfacet
facet normal 1.0 0.0 0.0
outer loop
vertex -1.5 15.63 3.0
vertex -1.5 12.52 6.0
vertex -1.5 1.5 0.0
endloop
endfacet
facet normal 1.0 0.0 0.0
outer loop
vertex -1.5 15.63 3.0
vertex -1.5 1.5 0.0
vertex -1.5 28.5 0.0
endloop
endfacet
facet normal 1.0 0.0 0.0
outer loop
vertex -1.5 15.63 3.0
vertex -1.5 28.5 0.0
vertex -1.5 28.5 3.0
endloop
endfacet
facet normal 1.0 0.0 0.0
outer loop
vertex -1.5 1.4999999 30.0
vertex -1.5 1.4999999 0.0
vertex -1.5 1.5 0.0
endloop
endfacet
facet normal 1.0 0.0 0.0
outer loop
vertex -1.5 1.4999999 30.0
vertex -1.5 1.5 0.0
vertex -1.5 1.5 30.0
endloop
endfacet
facet normal 1.0 0.0 0.0
outer loop
vertex -1.5 12.52 9.0
vertex -1.5 9.54 9.0
vertex -1.5 12.52 6.0
endloop
endfacet
facet normal 1.0 0.0 0.0
outer loop
vertex -1.5 8.74 15.0
vertex -1.5 6.95 15.0
vertex -1.5 8.74 12.0
endloop
endfacet
facet normal 1.0 0.0 0.0
outer loop
vertex -1.5 6.95 18.0
vertex -1.5 5.78 18.0
vertex -1.5 6.95 15.0
endloop
endfacet
facet normal 1.0 0.0 0.0
outer loop
vertex 1.5 12.52 6.0
vertex 1.5 9.54 9.0
vertex 1.5 1.5 0.0
endloop
endfacet
facet normal 1.0 0.0 0.0
outer loop
vertex 1.5 2.76 21.0
vertex 1.5 1.5 0.0
vertex 1.5 9.54 9.0
endloop
endfacet
facet normal 1.0 0.0 0.0
outer loop
vertex 1.5 1.5 0.0
vertex 1.5 2.76 21.0
vertex 1.5 1.5 30.0
endloop
endfacet
facet normal 1.0 0.0 0.0
outer loop
vertex 1.5 2.16 27.0
vertex 1.5 1.5 30.0
vertex 1.5 2.76 21.0
endloop
endfacet
facet normal 1.0 0.0 0.0
outer loop
vertex 1.5 1.5 30.0
vertex 1.5 2.16 27.0
vertex 1.5 2.16 30.0
endloop
endfacet
facet normal 1.0 0.0 0.0
outer loop
vertex 1.5 2.53 24.0
vertex 1.5 2.53 27.0
vertex 1.5 2.16 27.0
endloop
endfacet
facet normal 1.0 0.0 0.0
outer loop
vertex 1.5 2.53 24.0
vertex 1.5 2.16 27.0
vertex 1.5 2.76 21.0
endloop
endfacet
facet normal 1.0 0.0 0.0
outer loop
vertex 1.5 2.53 24.0
vertex 1.5 2.76 21.0
vertex 1.5 2.76 24.0
endloop
endfacet
facet normal 1.0 0.0 0.0
outer loop
vertex 1.5 9.54 12.0
vertex 1.5 8.74 12.0
vertex 1.5 9.54 9.0
endloop
endfacet
facet normal 1.0 0.0 0.0
outer loop
vertex 1.5 6.95 15.0
vertex 1.5 9.54 9.0
vertex 1.5 8.74 12.0
endloop
endfacet
facet normal 1.0 0.0 0.0
outer loop
vertex 1.5 9.54 9.0
vertex 1.5 6.95 15.0
vertex 1.5 2.76 21.0
endloop
endfacet
facet normal 1.0 0.0 0.0
outer loop
vertex 1.5 5.78 18.0
vertex 1.5 2.76 21.0
vertex 1.5 6.95 15.0
endloop
endfacet
facet normal 1.0 0.0 0.0
outer loop
vertex 1.5 2.76 21.0
vertex 1.5 5.78 18.0
vertex 1.5 5.78 21.0
endloop
endfacet
facet normal 1.0 0.0 0.0
outer loop
vertex 1.5 15.63 3.0
vertex 1.5 15.63 6.0
vertex 1.5 12.52 6.0
endloop
endfacet
facet normal 1.0 0.0 0.0
outer loop
vertex 1.5 15.63 3.0
vertex 1.5 12.52 6.0
vertex 1.5 1.5 0.0
endloop
endfacet
facet normal 1.0 0.0 0.0
outer loop
vertex 1.5 15.63 3.0
vertex 1.5 1.5 0.0
vertex 1.5 28.5 0.0
endloop
endfacet
facet normal 1.0 0.0 0.0
outer loop
vertex 1.5 15.63 3.0
vertex 1.5 28.5 0.0
vertex 1.5 28.5 3.0
endloop
endfacet
facet normal 1.0 0.0 0.0
outer loop
vertex 1.5 12.52 9.0
vertex 1.5 9.54 9.0
vertex 1.5 12.52 6.0
endloop
endfacet
facet normal 1.0 0.0 0.0
outer loop
vertex 1.5 8.74 15.0
vertex 1.5 6.95 15.0
vertex 1.5 8.74 12.0
endloop
endfacet
facet normal 1.0 0.0 0.0
outer loop
vertex 1.5 6.95 18.0
vertex 1.5 5.78 18.0
vertex 1.5 6.95 15.0
endloop
endfacet
facet normal 0.0 0.0 -1.0
outer loop
vertex -1.5 1.5 0.0
vertex -1.5 28.5 0.0
vertex 1.5 28.5 0.0
endloop
endfacet
facet normal 0.0 0.0 -1.0
outer loop
vertex -1.5 1.5 0.0
vertex 1.5 28.5 0.0
vertex 1.5 1.5 0.0
endloop
endfacet
facet normal 0.0 1.0 0.0
outer loop
vertex 1.5 28.5 0.0
vertex -1.5 28.5 0.0
vertex -1.5 28.5 3.0
endloop
endfacet
facet normal 0.0 1.0 0.0
outer loop
vertex 1.5 28.5 0.0
vertex -1.5 28.5 3.0
vertex 1.5 28.5 3.0
endloop
endfacet
facet normal 0.0 0.0 1.0
outer loop
vertex -1.5 28.5 3.0
vertex -1.5 15.63 3.0
vertex 1.5 15.63 3.0
endloop
endfacet
facet normal 0.0 0.0 1.0
outer loop
vertex -1.5 28.5 3.0
vertex 1.5 15.63 3.0
vertex 1.5 28.5 3.0
endloop
endfacet
facet normal 0.0 1.0 0.0
outer loop
vertex 1.5 15.63 3.0
vertex -1.5 15.63 3.0
vertex -1.5 15.63 6.0
endloop
endfacet
facet normal 0.0 1.0 0.0
outer loop
vertex 1.5 15.63 3.0
vertex -1.5 15.63 6.0
vertex 1.5 15.63 6.0
endloop
endfacet
facet normal 0.0 0.0 1.0
outer loop
vertex -1.5 15.63 6.0
vertex -1.5 12.52 6.0
vertex 1.5 12.52 6.0
endloop
endfacet
facet normal 0.0 0.0 1.0
outer loop
vertex -1.5 15.63 6.0
vertex 1.5 12.52 6.0
vertex 1.5 15.63 6.0
endloop
endfacet
facet normal 0.0 1.0 0.0
outer loop
vertex 1.5 12.52 6.0
vertex -1.5 12.52 6.0
vertex -1.5 12.52 9.0
endloop
endfacet
facet normal 0.0 1.0 0.0
outer loop
vertex 1.5 12.52 6.0
vertex -1.5 12.52 9.0
vertex 1.5 12.52 9.0
endloop
endfacet
facet normal 0.0 0.0 1.0
outer loop
vertex -1.5 12.52 9.0
vertex -1.5 9.54 9.0
vertex 1.5 9.54 9.0
endloop
endfacet
facet normal 0.0 0.0 1.0
outer loop
vertex -1.5 12.52 9.0
vertex 1.5 9.54 9.0
vertex 1.5 12.52 9.0
endloop
endfacet
facet normal 0.0 1.0 0.0
outer loop
vertex 1.5 9.54 9.0
vertex -1.5 9.54 9.0
vertex -1.5 9.54 12.0
endloop
endfacet
facet normal 0.0 1.0 0.0
outer loop
vertex 1.5 9.54 9.0
vertex -1.5 9.54 12.0
vertex 1.5 9.54 12.0
endloop
endfacet
facet normal 0.0 0.0 1.0
outer loop
vertex -1.5 9.54 12.0
vertex -1.5 8.74 12.0
vertex 1.5 8.74 12.0
endloop
endfacet
facet normal 0.0 0.0 1.0
outer loop
vertex -1.5 9.54 12.0
vertex 1.5 8.74 12.0
vertex 1.5 9.54 12.0
endloop
endfacet
facet normal 0.0 1.0 0.0
outer loop
vertex 1.5 8.74 12.0
vertex -1.5 8.74 12.0
vertex -1.5 8.74 15.0
endloop
endfacet
facet normal 0.0 1.0 0.0
outer loop
vertex 1.5 8.74 12.0
vertex -1.5 8.74 15.0
vertex 1.5 8.74 15.0
endloop
endfacet
facet normal 0.0 0.0 1.0
outer loop
vertex -1.5 8.74 15.0
vertex -1.5 6.95 15.0
vertex 1.5 6.95 15.0
endloop
endfacet
facet normal 0.0 0.0 1.0
outer loop
vertex -1.5 8.74 15.0
vertex 1.5 6.95 15.0
vertex 1.5 8.74 15.0
endloop
endfacet
facet normal 0.0 1.0 0.0
outer loop
vertex 1.5 6.95 15.0
vertex -1.5 6.95 15.0
vertex -1.5 6.95 18.0
endloop
endfacet
facet normal 0.0 1.0 0.0
outer loop
vertex 1.5 6.95 15.0
vertex -1.5 6.95 18.0
vertex 1.5 6.95 18.0
endloop
endfacet
facet normal 0.0 0.0 1.0
outer loop
vertex -1.5 6.95 18.0
vertex -1.5 5.78 18.0
vertex 1.5 5.78 18.0
endloop
endfacet
facet normal 0.0 0.0 1.0
outer loop
vertex -1.5 6.95 18.0
vertex 1.5 5.78 18.0
vertex 1.5 6.95 18.0
endloop
endfacet
facet normal 0.0 1.0 0.0
outer loop
vertex 1.5 5.78 18.0
vertex -1.5 5.78 18.0
vertex -1.5 5.78 21.0
endloop
endfacet
facet normal 0.0 1.0 0.0
outer loop
vertex 1.5 5.78 18.0
vertex -1.5 5.78 21.0
vertex 1.5 5.78 21.0
endloop
endfacet
facet normal 0.0 0.0 1.0
outer loop
vertex -1.5 5.78 21.0
vertex -1.5 2.76 21.0
vertex 1.5 2.76 21.0
endloop
endfacet
facet normal 0.0 0.0 1.0
outer loop
vertex -1.5 5.78 21.0
vertex 1.5 2.76 21.0
vertex 1.5 5.78 21.0
endloop
endfacet
facet normal 0.0 1.0 0.0
outer loop
vertex 1.5 2.76 21.0
vertex -1.5 2.76 21.0
vertex -1.5 2.76 24.0
endloop
endfacet
facet normal 0.0 1.0 0.0
outer loop
vertex 1.5 2.76 21.0
vertex -1.5 2.76 24.0
vertex 1.5 2.76 24.0
endloop
endfacet
facet normal 0.0 0.0 1.0
outer loop
vertex -1.5 2.76 24.0
vertex -1.5 2.53 24.0
vertex 1.5 2.53 24.0
endloop
endfacet
facet normal 0.0 0.0 1.0
outer loop
vertex -1.5 2.76 24.0
vertex 1.5 2.53 24.0
vertex 1.5 2.76 24.0
endloop
endfacet
facet normal 0.0 1.0 0.0
outer loop
vertex 1.5 2.53 24.0
vertex -1.5 2.53 24.0
vertex -1.5 2.53 27.0
endloop
endfacet
facet normal 0.0 1.0 0.0
outer loop
vertex 1.5 2.53 24.0
vertex -1.5 2.53 27.0
vertex 1.5 2.53 27.0
endloop
endfacet
facet normal 0.0 0.0 1.0
outer loop
vertex -1.5 2.53 27.0
vertex -1.5 2.16 27.0
vertex 1.5 2.16 27.0
endloop
endfacet
facet normal 0.0 0.0 1.0
outer loop
vertex -1.5 2.53 27.0
vertex 1.5 2.16 27.0
vertex 1.5 2.53 27.0
endloop
endfacet
facet normal 0.0 1.0 0.0
outer loop
vertex 1.5 2.16 27.0
vertex -1.5 2.16 27.0
vertex -1.5 2.16 30.0
endloop
endfacet
facet normal 0.0 1.0 0.0
outer loop
vertex 1.5 2.16 27.0
vertex -1.5 2.16 30.0
vertex 1.5 2.16 30.0
endloop
endfacet
facet normal 0.0 0.0 1.0
outer loop
vertex -1.5 2.16 30.0
vertex -1.5 1.5 30.0
vertex 1.5 1.5 30.0
endloop
endfacet
facet normal 0.0 0.0 1.0
outer loop
vertex -1.5 2.16 30.0
vertex 1.5 1.5 30.0
vertex 1.5 2.16 30.0
endloop
endfacet
facet normal 0.0 0.0 -1.0
outer loop
vertex 1.5 1.5 0.0
vertex -1.5 1.4999999 0.0
vertex -1.5 1.5 0.0
endloop
endfacet
facet normal 0.0 0.0 -1.0
outer loop
vertex 1.5 1.5 30.0
vertex -1.5 1.4999999 30.0
vertex -1.5 1.5 30.0
endloop
endfacet
facet normal -4.371139E-8 1.0 0.0
outer loop
vertex -14.74 -1.5000006 26.999998
vertex -28.48 -1.5000012 26.999998
vertex -28.48 -1.5000012 29.999998
endloop
endfacet
facet normal -4.371139E-8 1.0 0.0
outer loop
vertex -14.74 -1.5000006 26.999998
vertex -28.48 -1.5000012 29.999998
vertex -1.4999998 -1.5000001 29.999998
endloop
endfacet
facet normal -4.371139E-8 1.0 0.0
outer loop
vertex -14.74 -1.5000006 26.999998
vertex -1.4999998 -1.5000001 29.999998
vertex -2.62 -1.5000001 14.999999
endloop
endfacet
facet normal -4.371139E-8 1.0 0.0
outer loop
vertex -14.74 -1.5000006 26.999998
vertex -2.62 -1.5000001 14.999999
vertex -12.27 -1.5000005 20.999998
endloop
endfacet
facet normal -4.371139E-8 1.0 0.0
outer loop
vertex -14.74 -1.5000006 26.999998
vertex -12.27 -1.5000005 20.999998
vertex -14.74 -1.5000006 23.999998
endloop
endfacet
facet normal -4.371139E-8 1.0 0.0
outer loop
vertex -12.27 -1.5000005 17.999998
vertex -12.27 -1.5000005 20.999998
vertex -2.62 -1.5000001 14.999999
endloop
endfacet
facet normal -4.371139E-8 1.0 0.0
outer loop
vertex -12.27 -1.5000005 17.999998
vertex -2.62 -1.5000001 14.999999
vertex -24.83 -1.5000011 14.999999
endloop
endfacet
facet normal -4.371139E-8 1.0 0.0
outer loop
vertex -12.27 -1.5000005 17.999998
vertex -24.83 -1.5000011 14.999999
vertex -24.83 -1.5000011 17.999998
endloop
endfacet
facet normal -4.371139E-8 1.0 0.0
outer loop
vertex -14.49 -1.5000006 2.9999998
vertex -14.49 -1.5000006 5.9999995
vertex -3.2999997 -1.5000001 2.9999998
endloop
endfacet
facet normal -4.371139E-8 1.0 0.0
outer loop
vertex -3.0299997 -1.5000001 5.9999995
vertex -3.2999997 -1.5000001 2.9999998
vertex -14.49 -1.5000006 5.9999995
endloop
endfacet
facet normal -4.371139E-8 1.0 0.0
outer loop
vertex -3.2999997 -1.5000001 2.9999998
vertex -3.0299997 -1.5000001 5.9999995
vertex -3.2999997 -1.5000001 0.0
endloop
endfacet
facet normal -4.371139E-8 1.0 0.0
outer loop
vertex -2.62 -1.5000001 11.999999
vertex -3.2999997 -1.5000001 0.0
vertex -3.0299997 -1.5000001 5.9999995
endloop
endfacet
facet normal -4.371139E-8 1.0 0.0
outer loop
vertex -3.2999997 -1.5000001 0.0
vertex -2.62 -1.5000001 11.999999
vertex -1.4999998 -1.5000001 29.999998
endloop
endfacet
facet normal -4.371139E-8 1.0 0.0
outer loop
vertex -2.62 -1.5000001 14.999999
vertex -1.4999998 -1.5000001 29.999998
vertex -2.62 -1.5000001 11.999999
endloop
endfacet
facet normal -4.371139E-8 1.0 0.0
outer loop
vertex -14.74 -1.5000006 23.999998
vertex -12.27 -1.5000005 20.999998
vertex -18.55 -1.5000008 20.999998
endloop
endfacet
facet normal -4.371139E-8 1.0 0.0
outer loop
vertex -14.74 -1.5000006 23.999998
vertex -18.55 -1.5000008 20.999998
vertex -18.55 -1.5000008 23.999998
endloop
endfacet
facet normal -4.371139E-8 1.0 0.0
outer loop
vertex -3.0299997 -1.5000001 8.999999
vertex -27.98 -1.5000012 8.999999
vertex -27.98 -1.5000012 11.999999
endloop
endfacet
facet normal -4.371139E-8 1.0 0.0
outer loop
vertex -3.0299997 -1.5000001 8.999999
vertex -27.98 -1.5000012 11.999999
vertex -2.62 -1.5000001 11.999999
endloop
endfacet
facet normal -4.371139E-8 1.0 0.0
outer loop
vertex -3.0299997 -1.5000001 8.999999
vertex -2.62 -1.5000001 11.999999
vertex -3.0299997 -1.5000001 5.9999995
endloop
endfacet
facet normal -4.371139E-8 1.0 0.0
outer loop
vertex -3.2999997 -1.5000001 0.0
vertex -1.4999998 -1.5000001 29.999998
vertex -1.4999998 -1.5000001 0.0
endloop
endfacet
facet normal -4.371139E-8 1.0 0.0
outer loop
vertex -14.74 1.4999994 26.999998
vertex -28.48 1.4999988 26.999998
vertex -28.48 1.4999988 29.999998
endloop
endfacet
facet normal -4.371139E-8 1.0 0.0
outer loop
vertex -14.74 1.4999994 26.999998
vertex -28.48 1.4999988 29.999998
vertex -1.5 1.4999999 29.999998
endloop
endfacet
facet normal -4.371139E-8 1.0 0.0
outer loop
vertex -14.74 1.4999994 26.999998
vertex -1.5 1.4999999 29.999998
vertex -2.62 1.4999999 14.999999
endloop
endfacet
facet normal -4.371139E-8 1.0 0.0
outer loop
vertex -14.74 1.4999994 26.999998
vertex -2.62 1.4999999 14.999999
vertex -12.27 1.4999995 20.999998
endloop
endfacet
facet normal -4.371139E-8 1.0 0.0
outer loop
vertex -14.74 1.4999994 26.999998
vertex -12.27 1.4999995 20.999998
vertex -14.74 1.4999994 23.999998
endloop
endfacet
facet normal -4.371139E-8 1.0 0.0
outer loop
vertex -12.27 1.4999995 17.999998
vertex -12.27 1.4999995 20.999998
vertex -2.62 1.4999999 14.999999
endloop
endfacet
facet normal -4.371139E-8 1.0 0.0
outer loop
vertex -12.27 1.4999995 17.999998
vertex -2.62 1.4999999 14.999999
vertex -24.83 1.4999989 14.999999
endloop
endfacet
facet normal -4.371139E-8 1.0 0.0
outer loop
vertex -12.27 1.4999995 17.999998
vertex -24.83 1.4999989 14.999999
vertex -24.83 1.4999989 17.999998
endloop
endfacet
facet normal -4.371139E-8 1.0 0.0
outer loop
vertex -14.49 1.4999994 2.9999998
vertex -14.49 1.4999994 5.9999995
vertex -3.2999997 1.4999999 2.9999998
endloop
endfacet
facet normal -4.371139E-8 1.0 0.0
outer loop
vertex -3.0299997 1.4999999 5.9999995
vertex -3.2999997 1.4999999 2.9999998
vertex -14.49 1.4999994 5.9999995
endloop
endfacet
facet normal -4.371139E-8 1.0 0.0
outer loop
vertex -3.2999997 1.4999999 2.9999998
vertex -3.0299997 1.4999999 5.9999995
vertex -3.2999997 1.4999999 0.0
endloop
endfacet
facet normal -4.371139E-8 1.0 0.0
outer loop
vertex -2.62 1.4999999 11.999999
vertex -3.2999997 1.4999999 0.0
vertex -3.0299997 1.4999999 5.9999995
endloop
endfacet
facet normal -4.371139E-8 1.0 0.0
outer loop
vertex -3.2999997 1.4999999 0.0
vertex -2.62 1.4999999 11.999999
vertex -1.5 1.4999999 29.999998
endloop
endfacet
facet normal -4.371139E-8 1.0 0.0
outer loop
vertex -2.62 1.4999999 14.999999
vertex -1.5 1.4999999 29.999998
vertex -2.62 1.4999999 11.999999
endloop
endfacet
facet normal -4.371139E-8 1.0 0.0
outer loop
vertex -14.74 1.4999994 23.999998
vertex -12.27 1.4999995 20.999998
vertex -18.55 1.4999992 20.999998
endloop
endfacet
facet normal -4.371139E-8 1.0 0.0
outer loop
vertex -14.74 1.4999994 23.999998
vertex -18.55 1.4999992 20.999998
vertex -18.55 1.4999992 23.999998
endloop
endfacet
facet normal -4.371139E-8 1.0 0.0
outer loop
vertex -3.0299997 1.4999999 8.999999
vertex -27.98 1.4999988 8.999999
vertex -27.98 1.4999988 11.999999
endloop
endfacet
facet normal -4.371139E-8 1.0 0.0
outer loop
vertex -3.0299997 1.4999999 8.999999
vertex -27.98 1.4999988 11.999999
vertex -2.62 1.4999999 11.999999
endloop
endfacet
facet normal -4.371139E-8 1.0 0.0
outer loop
vertex -3.0299997 1.4999999 8.999999
vertex -2.62 1.4999999 11.999999
vertex -3.0299997 1.4999999 5.9999995
endloop
endfacet
facet normal -4.371139E-8 1.0 0.0
outer loop
vertex -3.2999997 1.4999999 0.0
vertex -1.5 1.4999999 29.999998
vertex -1.5 1.4999999 0.0
endloop
endfacet
facet normal 0.0 0.0 -0.99999994
outer loop
vertex -1.4999998 -1.5000001 0.0
vertex -3.2999997 -1.5000001 0.0
vertex -3.2999997 1.4999999 0.0
endloop
endfacet
facet normal 0.0 0.0 -0.99999994
outer loop
vertex -1.4999998 -1.5000001 0.0
vertex -3.2999997 1.4999999 0.0
vertex -1.5 1.4999999 0.0
endloop
endfacet
facet normal -1.0 -4.371139E-8 0.0
outer loop
vertex -3.2999997 1.4999999 0.0
vertex -3.2999997 -1.5000001 0.0
vertex -3.2999997 -1.5000001 2.9999998
endloop
endfacet
facet normal -1.0 -4.371139E-8 0.0
outer loop
vertex -3.2999997 1.4999999 0.0
vertex -3.2999997 -1.5000001 2.9999998
vertex -3.2999997 1.4999999 2.9999998
endloop
endfacet
facet normal 0.0 0.0 -0.99999994
outer loop
vertex -3.2999997 -1.5000001 2.9999998
vertex -14.49 -1.5000006 2.9999998
vertex -14.49 1.4999994 2.9999998
endloop
endfacet
facet normal 0.0 0.0 -0.99999994
outer loop
vertex -3.2999997 -1.5000001 2.9999998
vertex -14.49 1.4999994 2.9999998
vertex -3.2999997 1.4999999 2.9999998
endloop
endfacet
facet normal -1.0 -4.371139E-8 0.0
outer loop
vertex -14.49 1.4999994 2.9999998
vertex -14.49 -1.5000006 2.9999998
vertex -14.49 -1.5000006 5.9999995
endloop
endfacet
facet normal -1.0 -4.371139E-8 0.0
outer loop
vertex -14.49 1.4999994 2.9999998
vertex -14.49 -1.5000006 5.9999995
vertex -14.49 1.4999994 5.9999995
endloop
endfacet
facet normal 0.0 0.0 0.99999994
outer loop
vertex -14.49 -1.5000006 5.9999995
vertex -3.0299997 -1.5000001 5.9999995
vertex -3.0299997 1.4999999 5.9999995
endloop
endfacet
facet normal 0.0 0.0 0.99999994
outer loop
vertex -14.49 -1.5000006 5.9999995
vertex -3.0299997 1.4999999 5.9999995
vertex -14.49 1.4999994 5.9999995
endloop
endfacet
facet normal -1.0 -4.371139E-8 0.0
outer loop
vertex -3.0299997 1.4999999 5.9999995
vertex -3.0299997 -1.5000001 5.9999995
vertex -3.0299997 -1.5000001 8.999999
endloop
endfacet
facet normal -1.0 -4.371139E-8 0.0
outer loop
vertex -3.0299997 1.4999999 5.9999995
vertex -3.0299997 -1.5000001 8.999999
vertex -3.0299997 1.4999999 8.999999
endloop
endfacet
facet normal 0.0 0.0 -0.99999994
outer loop
vertex -3.0299997 -1.5000001 8.999999
vertex -27.98 -1.5000012 8.999999
vertex -27.98 1.4999988 8.999999
endloop
endfacet
facet normal 0.0 0.0 -0.99999994
outer loop
vertex -3.0299997 -1.5000001 8.999999
vertex -27.98 1.4999988 8.999999
vertex -3.0299997 1.4999999 8.999999
endloop
endfacet
facet normal -1.0 -4.371139E-8 0.0
outer loop
vertex -27.98 1.4999988 8.999999
vertex -27.98 -1.5000012 8.999999
vertex -27.98 -1.5000012 11.999999
endloop
endfacet
facet normal -1.0 -4.371139E-8 0.0
outer loop
vertex -27.98 1.4999988 8.999999
vertex -27.98 -1.5000012 11.999999
vertex -27.98 1.4999988 11.999999
endloop
endfacet
facet normal 0.0 0.0 0.99999994
outer loop
vertex -27.98 -1.5000012 11.999999
vertex -2.62 -1.5000001 11.999999
vertex -2.62 1.4999999 11.999999
endloop
endfacet
facet normal 0.0 0.0 0.99999994
outer loop
vertex -27.98 -1.5000012 11.999999
vertex -2.62 1.4999999 11.999999
vertex -27.98 1.4999988 11.999999
endloop
endfacet
facet normal -1.0 -4.371139E-8 0.0
outer loop
vertex -2.62 1.4999999 11.999999
vertex -2.62 -1.5000001 11.999999
vertex -2.62 -1.5000001 14.999999
endloop
endfacet
facet normal -1.0 -4.371139E-8 0.0
outer loop
vertex -2.62 1.4999999 11.999999
vertex -2.62 -1.5000001 14.999999
vertex -2.62 1.4999999 14.999999
endloop
endfacet
facet normal 0.0 0.0 -0.99999994
outer loop
vertex -2.62 -1.5000001 14.999999
vertex -24.83 -1.5000011 14.999999
vertex -24.83 1.4999989 14.999999
endloop
endfacet
facet normal 0.0 0.0 -0.99999994
outer loop
vertex -2.62 -1.5000001 14.999999
vertex -24.83 1.4999989 14.999999
vertex -2.62 1.4999999 14.999999
endloop
endfacet
facet normal -1.0 -4.371139E-8 0.0
outer loop
vertex -24.83 1.4999989 14.999999
vertex -24.83 -1.5000011 14.999999
vertex -24.83 -1.5000011 17.999998
endloop
endfacet
facet normal -1.0 -4.371139E-8 0.0
outer loop
vertex -24.83 1.4999989 14.999999
vertex -24.83 -1.5000011 17.999998
vertex -24.83 1.4999989 17.999998
endloop
endfacet
facet normal 0.0 0.0 0.99999994
outer loop
vertex -24.83 -1.5000011 17.999998
vertex -12.27 -1.5000005 17.999998
vertex -12.27 1.4999995 17.999998
endloop
endfacet
facet normal 0.0 0.0 0.99999994
outer loop
vertex -24.83 -1.5000011 17.999998
vertex -12.27 1.4999995 17.999998
vertex -24.83 1.4999989 17.999998
endloop
endfacet
facet normal -1.0 -4.371139E-8 0.0
outer loop
vertex -12.27 1.4999995 17.999998
vertex -12.27 -1.5000005 17.999998
vertex -12.27 -1.5000005 20.999998
endloop
endfacet
facet normal -1.0 -4.371139E-8 0.0
outer loop
vertex -12.27 1.4999995 17.999998
vertex -12.27 -1.5000005 20.999998
vertex -12.27 1.4999995 20.999998
endloop
endfacet
facet normal 0.0 0.0 -0.99999994
outer loop
vertex -12.27 -1.5000005 20.999998
vertex -18.55 -1.5000008 20.999998
vertex -18.55 1.4999992 20.999998
endloop
endfacet
facet normal 0.0 0.0 -0.99999994
outer loop
vertex -12.27 -1.5000005 20.999998
vertex -18.55 1.4999992 20.999998
vertex -12.27 1.4999995 20.999998
endloop
endfacet
facet normal -1.0 -4.371139E-8 0.0
outer loop
vertex -18.55 1.4999992 20.999998
vertex -18.55 -1.5000008 20.999998
vertex -18.55 -1.5000008 23.999998
endloop
endfacet
facet normal -1.0 -4.371139E-8 0.0
outer loop
vertex -18.55 1.4999992 20.999998
vertex -18.55 -1.5000008 23.999998
vertex -18.55 1.4999992 23.999998
endloop
endfacet
facet normal 0.0 0.0 0.99999994
outer loop
vertex -18.55 -1.5000008 23.999998
vertex -14.74 -1.5000006 23.999998
vertex -14.74 1.4999994 23.999998
endloop
endfacet
facet normal 0.0 0.0 0.99999994
outer loop
vertex -18.55 -1.5000008 23.999998
vertex -14.74 1.4999994 23.999998
vertex -18.55 1.4999992 23.999998
endloop
endfacet
facet normal -1.0 -4.371139E-8 0.0
outer loop
vertex -14.74 1.4999994 23.999998
vertex -14.74 -1.5000006 23.999998
vertex -14.74 -1.5000006 26.999998
endloop
endfacet
facet normal -1.0 -4.371139E-8 0.0
outer loop
vertex -14.74 1.4999994 23.999998
vertex -14.74 -1.5000006 26.999998
vertex -14.74 1.4999994 26.999998
endloop
endfacet
facet normal 0.0 0.0 -0.99999994
outer loop
vertex -14.74 -1.5000006 26.999998
vertex -28.48 -1.5000012 26.999998
vertex -28.48 1.4999988 26.999998
endloop
endfacet
facet normal 0.0 0.0 -0.99999994
outer loop
vertex -14.74 -1.5000006 26.999998
vertex -28.48 1.4999988 26.999998
vertex -14.74 1.4999994 26.999998
endloop
endfacet
facet normal -1.0 -4.371139E-8 0.0
outer loop
vertex -28.48 1.4999988 26.999998
vertex -28.48 -1.5000012 26.999998
vertex -28.48 -1.5000012 29.999998
endloop
endfacet
facet normal -1.0 -4.371139E-8 0.0
outer loop
vertex -28.48 1.4999988 26.999998
vertex -28.48 -1.5000012 29.999998
vertex -28.48 1.4999988 29.999998
endloop
endfacet
facet normal 0.0 0.0 0.99999994
outer loop
vertex -28.48 -1.5000012 29.999998
vertex -1.4999998 -1.5000001 29.999998
vertex -1.5 1.4999999 29.999998
endloop
endfacet
facet normal 0.0 0.0 0.99999994
outer loop
vertex -28.48 -1.5000012 29.999998
vertex -1.5 1.4999999 29.999998
vertex -28.48 1.4999988 29.999998
endloop
endfacet
facet normal -1.0 -8.742278E-8 0.0
outer loop
vertex 1.5000019 -21.9 27.0
vertex 1.5000019 -21.9 30.0
vertex 1.5000005 -5.7 27.0
endloop
endfacet
facet normal -1.0 -8.742278E-8 0.0
outer loop
vertex 1.5000001 -1.5 30.0
vertex 1.5000005 -5.7 27.0
vertex 1.5000019 -21.9 30.0
endloop
endfacet
facet normal -1.0 -8.742278E-8 0.0
outer loop
vertex 1.5000005 -5.7 27.0
vertex 1.5000001 -1.5 30.0
vertex 1.5000005 -5.7 24.0
endloop
endfacet
facet normal -1.0 -8.742278E-8 0.0
outer loop
vertex 1.500001 -11.5 0.0
vertex 1.5000005 -5.7 24.0
vertex 1.5000001 -1.5 30.0
endloop
endfacet
facet normal -1.0 -8.742278E-8 0.0
outer loop
vertex 1.5000005 -5.7 24.0
vertex 1.500001 -11.5 0.0
vertex 1.5000007 -7.8 21.0
endloop
endfacet
facet normal -1.0 -8.742278E-8 0.0
outer loop
vertex 1.500001 -10.5 15.0
vertex 1.5000007 -7.8 21.0
vertex 1.500001 -11.5 0.0
endloop
endfacet
facet normal -1.0 -8.742278E-8 0.0
outer loop
vertex 1.5000007 -7.8 21.0
vertex 1.500001 -10.5 15.0
vertex 1.500001 -10.5 18.0
endloop
endfacet
facet normal -1.0 -8.742278E-8 0.0
outer loop
vertex 1.5000017 -19.0 21.0
vertex 1.5000007 -7.8 21.0
vertex 1.500001 -10.5 18.0
endloop
endfacet
facet normal -1.0 -8.742278E-8 0.0
outer loop
vertex 1.5000017 -19.0 21.0
vertex 1.500001 -10.5 18.0
vertex 1.5000017 -19.0 18.0
endloop
endfacet
facet normal -1.0 -8.742278E-8 0.0
outer loop
vertex 1.5000012 -13.5 9.0
vertex 1.5000015 -17.1 9.0
vertex 1.5000014 -16.6 12.0
endloop
endfacet
facet normal -1.0 -8.742278E-8 0.0
outer loop
vertex 1.5000012 -13.5 9.0
vertex 1.5000014 -16.6 12.0
vertex 1.5000014 -16.6 15.0
endloop
endfacet
facet normal -1.0 -8.742278E-8 0.0
outer loop
vertex 1.5000012 -13.5 9.0
vertex 1.5000014 -16.6 15.0
vertex 1.500001 -10.5 15.0
endloop
endfacet
facet normal -1.0 -8.742278E-8 0.0
outer loop
vertex 1.5000012 -13.5 9.0
vertex 1.500001 -10.5 15.0
vertex 1.500001 -11.5 3.0
endloop
endfacet
facet normal -1.0 -8.742278E-8 0.0
outer loop
vertex 1.5000012 -13.5 9.0
vertex 1.500001 -11.5 3.0
vertex 1.5000012 -13.5 6.0
endloop
endfacet
facet normal -1.0 -8.742278E-8 0.0
outer loop
vertex 1.5000012 -13.5 6.0
vertex 1.500001 -11.5 3.0
vertex 1.5000024 -26.8 3.0
endloop
endfacet
facet normal -1.0 -8.742278E-8 0.0
outer loop
vertex 1.5000012 -13.5 6.0
vertex 1.5000024 -26.8 3.0
vertex 1.5000024 -26.8 6.0
endloop
endfacet
facet normal -1.0 -8.742278E-8 0.0
outer loop
vertex 1.5000014 -16.6 12.0
vertex 1.5000015 -17.1 9.0
vertex 1.5000015 -17.1 12.0
endloop
endfacet
facet normal -1.0 -8.742278E-8 0.0
outer loop
vertex 1.500001 -11.5 0.0
vertex 1.5000001 -1.5 30.0
vertex 1.5000001 -1.5 0.0
endloop
endfacet
facet normal -1.0 -8.742278E-8 0.0
outer loop
vertex 1.500001 -10.5 15.0
vertex 1.500001 -11.5 0.0
vertex 1.500001 -11.5 3.0
endloop
endfacet
facet normal -1.0 -8.742278E-8 0.0
outer loop
vertex 1.5000007 -7.8 24.0
vertex 1.5000005 -5.7 24.0
vertex 1.5000007 -7.8 21.0
endloop
endfacet
facet normal -1.0 -8.742278E-8 0.0
outer loop
vertex -1.4999981 -21.9 27.0
vertex -1.4999981 -21.9 30.0
vertex -1.4999995 -5.7 27.0
endloop
endfacet
facet normal -1.0 -8.742278E-8 0.0
outer loop
vertex -1.4999999 -1.5000002 30.0
vertex -1.4999995 -5.7 27.0
vertex -1.4999981 -21.9 30.0
endloop
endfacet
facet normal -1.0 -8.742278E-8 0.0
outer loop
vertex -1.4999995 -5.7 27.0
vertex -1.4999999 -1.5000002 30.0
vertex -1.4999995 -5.7 24.0
endloop
endfacet
facet normal -1.0 -8.742278E-8 0.0
outer loop
vertex -1.499999 -11.5 0.0
vertex -1.4999995 -5.7 24.0
vertex -1.4999999 -1.5000002 30.0
endloop
endfacet
facet normal -1.0 -8.742278E-8 0.0
outer loop
vertex -1.4999995 -5.7 24.0
vertex -1.499999 -11.5 0.0
vertex -1.4999993 -7.8 21.0
endloop
endfacet
facet normal -1.0 -8.742278E-8 0.0
outer loop
vertex -1.499999 -10.5 15.0
vertex -1.4999993 -7.8 21.0
vertex -1.499999 -11.5 0.0
endloop
endfacet
facet normal -1.0 -8.742278E-8 0.0
outer loop
vertex -1.4999993 -7.8 21.0
vertex -1.499999 -10.5 15.0
vertex -1.499999 -10.5 18.0
endloop
endfacet
facet normal -1.0 -8.742278E-8 0.0
outer loop
vertex -1.4999983 -19.0 21.0
vertex -1.4999993 -7.8 21.0
vertex -1.499999 -10.5 18.0
endloop
endfacet
facet normal -1.0 -8.742278E-8 0.0
outer loop
vertex -1.4999983 -19.0 21.0
vertex -1.499999 -10.5 18.0
vertex -1.4999983 -19.0 18.0
endloop
endfacet
facet normal -1.0 -8.742278E-8 0.0
outer loop
vertex -1.4999988 -13.5 9.0
vertex -1.4999985 -17.1 9.0
vertex -1.4999986 -16.6 12.0
endloop
endfacet
facet normal -1.0 -8.742278E-8 0.0
outer loop
vertex -1.4999988 -13.5 9.0
vertex -1.4999986 -16.6 12.0
vertex -1.4999986 -16.6 15.0
endloop
endfacet
facet normal -1.0 -8.742278E-8 0.0
outer loop
vertex -1.4999988 -13.5 9.0
vertex -1.4999986 -16.6 15.0
vertex -1.499999 -10.5 15.0
endloop
endfacet
facet normal -1.0 -8.742278E-8 0.0
outer loop
vertex -1.4999988 -13.5 9.0
vertex -1.499999 -10.5 15.0
vertex -1.499999 -11.5 3.0
endloop
endfacet
facet normal -1.0 -8.742278E-8 0.0
outer loop
vertex -1.4999988 -13.5 9.0
vertex -1.499999 -11.5 3.0
vertex -1.4999988 -13.5 6.0
endloop
endfacet
facet normal -1.0 -8.742278E-8 0.0
outer loop
vertex -1.4999999 -1.5000002 0.0
vertex -1.499999 -11.5 0.0
vertex -1.4999999 -1.5000002 30.0
endloop
endfacet
facet normal -1.0 -8.742278E-8 0.0
outer loop
vertex -1.4999999 -1.5000002 0.0
vertex -1.4999999 -1.5000002 30.0
vertex -1.4999999 -1.5 30.0
endloop
endfacet
facet normal -1.0 -8.742278E-8 0.0
outer loop
vertex -1.4999999 -1.5000002 0.0
vertex -1.4999999 -1.5 30.0
vertex -1.4999999 -1.5 0.0
endloop
endfacet
facet normal -1.0 -8.742278E-8 0.0
outer loop
vertex -1.4999988 -13.5 6.0
vertex -1.499999 -11.5 3.0
vertex -1.4999976 -26.8 3.0
endloop
endfacet
facet normal -1.0 -8.742278E-8 0.0
outer loop
vertex -1.4999988 -13.5 6.0
vertex -1.4999976 -26.8 3.0
vertex -1.4999976 -26.8 6.0
endloop
endfacet
facet normal -1.0 -8.742278E-8 0.0
outer loop
vertex -1.4999986 -16.6 12.0
vertex -1.4999985 -17.1 9.0
vertex -1.4999985 -17.1 12.0
endloop
endfacet
facet normal -1.0 -8.742278E-8 0.0
outer loop
vertex -1.499999 -10.5 15.0
vertex -1.499999 -11.5 0.0
vertex -1.499999 -11.5 3.0
endloop
endfacet
facet normal -1.0 -8.742278E-8 0.0
outer loop
vertex -1.4999993 -7.8 24.0
vertex -1.4999995 -5.7 24.0
vertex -1.4999993 -7.8 21.0
endloop
endfacet
facet normal -0.0 0.0 -1.0
outer loop
vertex 1.5000001 -1.5 0.0
vertex 1.500001 -11.5 0.0
vertex -1.499999 -11.5 0.0
endloop
endfacet
facet normal -0.0 0.0 -1.0
outer loop
vertex 1.5000001 -1.5 0.0
vertex -1.499999 -11.5 0.0
vertex -1.4999999 -1.5000002 0.0
endloop
endfacet
facet normal 8.742278E-8 -1.0 0.0
outer loop
vertex -1.499999 -11.5 0.0
vertex 1.500001 -11.5 0.0
vertex 1.500001 -11.5 3.0
endloop
endfacet
facet normal 8.742278E-8 -1.0 0.0
outer loop
vertex -1.499999 -11.5 0.0
vertex 1.500001 -11.5 3.0
vertex -1.499999 -11.5 3.0
endloop
endfacet
facet normal -0.0 0.0 -1.0
outer loop
vertex 1.500001 -11.5 3.0
vertex 1.5000024 -26.8 3.0
vertex -1.4999976 -26.8 3.0
endloop
endfacet
facet normal -0.0 0.0 -1.0
outer loop
vertex 1.500001 -11.5 3.0
vertex -1.4999976 -26.8 3.0
vertex -1.499999 -11.5 3.0
endloop
endfacet
facet normal 8.742278E-8 -1.0 0.0
outer loop
vertex -1.4999976 -26.8 3.0
vertex 1.5000024 -26.8 3.0
vertex 1.5000024 -26.8 6.0
endloop
endfacet
facet normal 8.742278E-8 -1.0 0.0
outer loop
vertex -1.4999976 -26.8 3.0
vertex 1.5000024 -26.8 6.0
vertex -1.4999976 -26.8 6.0
endloop
endfacet
facet normal 0.0 0.0 1.0
outer loop
vertex 1.5000024 -26.8 6.0
vertex 1.5000012 -13.5 6.0
vertex -1.4999988 -13.5 6.0
endloop
endfacet
facet normal 0.0 0.0 1.0
outer loop
vertex 1.5000024 -26.8 6.0
vertex -1.4999988 -13.5 6.0
vertex -1.4999976 -26.8 6.0
endloop
endfacet
facet normal 8.742278E-8 -1.0 0.0
outer loop
vertex -1.4999988 -13.5 6.0
vertex 1.5000012 -13.5 6.0
vertex 1.5000012 -13.5 9.0
endloop
endfacet
facet normal 8.742278E-8 -1.0 0.0
outer loop
vertex -1.4999988 -13.5 6.0
vertex 1.5000012 -13.5 9.0
vertex -1.4999988 -13.5 9.0
endloop
endfacet
facet normal -0.0 0.0 -1.0
outer loop
vertex 1.5000012 -13.5 9.0
vertex 1.5000015 -17.1 9.0
vertex -1.4999985 -17.1 9.0
endloop
endfacet
facet normal -0.0 0.0 -1.0
outer loop
vertex 1.5000012 -13.5 9.0
vertex -1.4999985 -17.1 9.0
vertex -1.4999988 -13.5 9.0
endloop
endfacet
facet normal 8.742278E-8 -1.0 0.0
outer loop
vertex -1.4999985 -17.1 9.0
vertex 1.5000015 -17.1 9.0
vertex 1.5000015 -17.1 12.0
endloop
endfacet
facet normal 8.742278E-8 -1.0 0.0
outer loop
vertex -1.4999985 -17.1 9.0
vertex 1.5000015 -17.1 12.0
vertex -1.4999985 -17.1 12.0
endloop
endfacet
facet normal 0.0 0.0 1.0
outer loop
vertex 1.5000015 -17.1 12.0
vertex 1.5000014 -16.6 12.0
vertex -1.4999986 -16.6 12.0
endloop
endfacet
facet normal 0.0 0.0 1.0
outer loop
vertex 1.5000015 -17.1 12.0
vertex -1.4999986 -16.6 12.0
vertex -1.4999985 -17.1 12.0
endloop
endfacet
facet normal 8.742278E-8 -1.0 0.0
outer loop
vertex -1.4999986 -16.6 12.0
vertex 1.5000014 -16.6 12.0
vertex 1.5000014 -16.6 15.0
endloop
endfacet
facet normal 8.742278E-8 -1.0 0.0
outer loop
vertex -1.4999986 -16.6 12.0
vertex 1.5000014 -16.6 15.0
vertex -1.4999986 -16.6 15.0
endloop
endfacet
facet normal 0.0 0.0 1.0
outer loop
vertex 1.5000014 -16.6 15.0
vertex 1.500001 -10.5 15.0
vertex -1.499999 -10.5 15.0
endloop
endfacet
facet normal 0.0 0.0 1.0
outer loop
vertex 1.5000014 -16.6 15.0
vertex -1.499999 -10.5 15.0
vertex -1.4999986 -16.6 15.0
endloop
endfacet
facet normal 8.742278E-8 -1.0 0.0
outer loop
vertex -1.499999 -10.5 15.0
vertex 1.500001 -10.5 15.0
vertex 1.500001 -10.5 18.0
endloop
endfacet
facet normal 8.742278E-8 -1.0 0.0
outer loop
vertex -1.499999 -10.5 15.0
vertex 1.500001 -10.5 18.0
vertex -1.499999 -10.5 18.0
endloop
endfacet
facet normal -0.0 0.0 -1.0
outer loop
vertex 1.500001 -10.5 18.0
vertex 1.5000017 -19.0 18.0
vertex -1.4999983 -19.0 18.0
endloop
endfacet
facet normal -0.0 0.0 -1.0
outer loop
vertex 1.500001 -10.5 18.0
vertex -1.4999983 -19.0 18.0
vertex -1.499999 -10.5 18.0
endloop
endfacet
facet normal 8.742278E-8 -1.0 0.0
outer loop
vertex -1.4999983 -19.0 18.0
vertex 1.5000017 -19.0 18.0
vertex 1.5000017 -19.0 21.0
endloop
endfacet
facet normal 8.742278E-8 -1.0 0.0
outer loop
vertex -1.4999983 -19.0 18.0
vertex 1.5000017 -19.0 21.0
vertex -1.4999983 -19.0 21.0
endloop
endfacet
facet normal 0.0 0.0 1.0
outer loop
vertex 1.5000017 -19.0 21.0
vertex 1.5000007 -7.8 21.0
vertex -1.4999993 -7.8 21.0
endloop
endfacet
facet normal 0.0 0.0 1.0
outer loop
vertex 1.5000017 -19.0 21.0
vertex -1.4999993 -7.8 21.0
vertex -1.4999983 -19.0 21.0
endloop
endfacet
facet normal 8.742278E-8 -1.0 0.0
outer loop
vertex -1.4999993 -7.8 21.0
vertex 1.5000007 -7.8 21.0
vertex 1.5000007 -7.8 24.0
endloop
endfacet
facet normal 8.742278E-8 -1.0 0.0
outer loop
vertex -1.4999993 -7.8 21.0
vertex 1.5000007 -7.8 24.0
vertex -1.4999993 -7.8 24.0
endloop
endfacet
facet normal 0.0 0.0 1.0
outer loop
vertex 1.5000007 -7.8 24.0
vertex 1.5000005 -5.7 24.0
vertex -1.4999995 -5.7 24.0
endloop
endfacet
facet normal 0.0 0.0 1.0
outer loop
vertex 1.5000007 -7.8 24.0
vertex -1.4999995 -5.7 24.0
vertex -1.4999993 -7.8 24.0
endloop
endfacet
facet normal 8.742278E-8 -1.0 0.0
outer loop
vertex -1.4999995 -5.7 24.0
vertex 1.5000005 -5.7 24.0
vertex 1.5000005 -5.7 27.0
endloop
endfacet
facet normal 8.742278E-8 -1.0 0.0
outer loop
vertex -1.4999995 -5.7 24.0
vertex 1.5000005 -5.7 27.0
vertex -1.4999995 -5.7 27.0
endloop
endfacet
facet normal -0.0 0.0 -1.0
outer loop
vertex 1.5000005 -5.7 27.0
vertex 1.5000019 -21.9 27.0
vertex -1.4999981 -21.9 27.0
endloop
endfacet
facet normal -0.0 0.0 -1.0
outer loop
vertex 1.5000005 -5.7 27.0
vertex -1.4999981 -21.9 27.0
vertex -1.4999995 -5.7 27.0
endloop
endfacet
facet normal 8.742278E-8 -1.0 0.0
outer loop
vertex -1.4999981 -21.9 27.0
vertex 1.5000019 -21.9 27.0
vertex 1.5000019 -21.9 30.0
endloop
endfacet
facet normal 8.742278E-8 -1.0 0.0
outer loop
vertex -1.4999981 -21.9 27.0
vertex 1.5000019 -21.9 30.0
vertex -1.4999981 -21.9 30.0
endloop
endfacet
facet normal 0.0 0.0 1.0
outer loop
vertex 1.5000019 -21.9 30.0
vertex 1.5000001 -1.5 30.0
vertex -1.4999999 -1.5000002 30.0
endloop
endfacet
facet normal 0.0 0.0 1.0
outer loop
vertex 1.5000019 -21.9 30.0
vertex -1.4999999 -1.5000002 30.0
vertex -1.4999981 -21.9 30.0
endloop
endfacet
facet normal 0.0 0.0 1.0
outer loop
vertex -1.4999999 -1.5000002 0.0
vertex 1.5000001 -1.5 0.0
vertex -1.4999999 -1.5 0.0
endloop
endfacet
facet normal 0.0 0.0 1.0
outer loop
vertex -1.4999999 -1.5000002 30.0
vertex 1.5000001 -1.5 30.0
vertex -1.4999999 -1.5 30.0
endloop
endfacet
facet normal NaN NaN NaN
outer loop
vertex 9.5 1.5000001 30.0
vertex 1.5000001 1.5 30.0
vertex 3.5 1.5 6.0
endloop
endfacet
facet normal NaN NaN NaN
outer loop
vertex 9.5 1.5000001 30.0
vertex 3.5 1.5 6.0
vertex 7.5 1.5000001 9.0
endloop
endfacet
facet normal NaN NaN NaN
outer loop
vertex 9.5 1.5000001 30.0
vertex 7.5 1.5000001 9.0
vertex 9.5 1.5000001 12.0
endloop
endfacet
facet normal NaN NaN NaN
outer loop
vertex 9.5 1.5000001 30.0
vertex 9.5 1.5000001 12.0
vertex 9.5 1.5000001 15.0
endloop
endfacet
facet normal NaN NaN NaN
outer loop
vertex 9.5 1.5000001 30.0
vertex 9.5 1.5000001 15.0
vertex 9.5 1.5000001 27.0
endloop
endfacet
facet normal 1.1924881E-8 -1.0 0.0
outer loop
vertex 3.5 1.5 3.0
vertex 3.5 1.5 6.0
vertex 1.5000001 1.5 30.0
endloop
endfacet
facet normal 1.1924881E-8 -1.0 0.0
outer loop
vertex 3.5 1.5 3.0
vertex 1.5000001 1.5 30.0
vertex 1.5000001 1.5 0.0
endloop
endfacet
facet normal 1.1924881E-8 -1.0 0.0
outer loop
vertex 3.5 1.5 3.0
vertex 1.5000001 1.5 0.0
vertex 16.5 1.5000002 0.0
endloop
endfacet
facet normal 1.1924881E-8 -1.0 0.0
outer loop
vertex 3.5 1.5 3.0
vertex 16.5 1.5000002 0.0
vertex 16.5 1.5000002 3.0
endloop
endfacet
facet normal 1.1924881E-8 -1.0 0.0
outer loop
vertex 13.5 1.5000001 18.0
vertex 22.5 1.5000002 18.0
vertex 16.5 1.5000002 24.0
endloop
endfacet
facet normal 1.1924881E-8 -1.0 0.0
outer loop
vertex 13.5 1.5000001 18.0
vertex 16.5 1.5000002 24.0
vertex 16.5 1.5000002 27.0
endloop
endfacet
facet normal 1.1924881E-8 -1.0 0.0
outer loop
vertex 13.5 1.5000001 18.0
vertex 16.5 1.5000002 27.0
vertex 9.5 1.5000001 27.0
endloop
endfacet
facet normal 1.1924881E-8 -1.0 0.0
outer loop
vertex 13.5 1.5000001 18.0
vertex 9.5 1.5000001 27.0
vertex 13.5 1.5000001 15.0
endloop
endfacet
facet normal 1.1924881E-8 -1.0 0.0
outer loop
vertex 22.5 1.5000002 21.0
vertex 26.5 1.5000004 21.0
vertex 26.5 1.5000004 24.0
endloop
endfacet
facet normal 1.1924881E-8 -1.0 0.0
outer loop
vertex 22.5 1.5000002 21.0
vertex 26.5 1.5000004 24.0
vertex 16.5 1.5000002 24.0
endloop
endfacet
facet normal 1.1924881E-8 -1.0 0.0
outer loop
vertex 22.5 1.5000002 21.0
vertex 16.5 1.5000002 24.0
vertex 22.5 1.5000002 18.0
endloop
endfacet
facet normal 1.1924881E-8 -1.0 0.0
outer loop
vertex 9.5 1.5000001 12.0
vertex 7.5 1.5000001 9.0
vertex 13.5 1.5000001 9.0
endloop
endfacet
facet normal 1.1924881E-8 -1.0 0.0
outer loop
vertex 9.5 1.5000001 12.0
vertex 13.5 1.5000001 9.0
vertex 13.5 1.5000001 12.0
endloop
endfacet
facet normal 1.1924881E-8 -1.0 0.0
outer loop
vertex 1.5 1.5 30.0
vertex 1.5 1.5 0.0
vertex 1.5000001 1.5 0.0
endloop
endfacet
facet normal 1.1924881E-8 -1.0 0.0
outer loop
vertex 1.5 1.5 30.0
vertex 1.5000001 1.5 0.0
vertex 1.5000001 1.5 30.0
endloop
endfacet
facet normal 1.1924881E-8 -1.0 0.0
outer loop
vertex 13.5 1.5000001 15.0
vertex 9.5 1.5000001 27.0
vertex 9.5 1.5000001 15.0
endloop
endfacet
facet normal 1.1924881E-8 -1.0 0.0
outer loop
vertex 7.5 1.5000001 9.0
vertex 3.5 1.5 6.0
vertex 7.5 1.5000001 6.0
endloop
endfacet
facet normal NaN NaN NaN
outer loop
vertex 9.5 -1.4999999 30.0
vertex 1.5000001 -1.5 30.0
vertex 3.5 -1.5 6.0
endloop
endfacet
facet normal NaN NaN NaN
outer loop
vertex 9.5 -1.4999999 30.0
vertex 3.5 -1.5 6.0
vertex 7.5 -1.4999999 9.0
endloop
endfacet
facet normal NaN NaN NaN
outer loop
vertex 9.5 -1.4999999 30.0
vertex 7.5 -1.4999999 9.0
vertex 9.5 -1.4999999 12.0
endloop
endfacet
facet normal NaN NaN NaN
outer loop
vertex 9.5 -1.4999999 30.0
vertex 9.5 -1.4999999 12.0
vertex 9.5 -1.4999999 15.0
endloop
endfacet
facet normal NaN NaN NaN
outer loop
vertex 9.5 -1.4999999 30.0
vertex 9.5 -1.4999999 15.0
vertex 9.5 -1.4999999 27.0
endloop
endfacet
facet normal 1.1924881E-8 -1.0 0.0
outer loop
vertex 3.5 -1.5 3.0
vertex 3.5 -1.5 6.0
vertex 1.5000001 -1.5 30.0
endloop
endfacet
facet normal 1.1924881E-8 -1.0 0.0
outer loop
vertex 3.5 -1.5 3.0
vertex 1.5000001 -1.5 30.0
vertex 1.5000001 -1.5 0.0
endloop
endfacet
facet normal 1.1924881E-8 -1.0 0.0
outer loop
vertex 3.5 -1.5 3.0
vertex 1.5000001 -1.5 0.0
vertex 16.5 -1.4999998 0.0
endloop
endfacet
facet normal 1.1924881E-8 -1.0 0.0
outer loop
vertex 3.5 -1.5 3.0
vertex 16.5 -1.4999998 0.0
vertex 16.5 -1.4999998 3.0
endloop
endfacet
facet normal 1.1924881E-8 -1.0 0.0
outer loop
vertex 13.5 -1.4999999 18.0
vertex 22.5 -1.4999998 18.0
vertex 16.5 -1.4999998 24.0
endloop
endfacet
facet normal 1.1924881E-8 -1.0 0.0
outer loop
vertex 13.5 -1.4999999 18.0
vertex 16.5 -1.4999998 24.0
vertex 16.5 -1.4999998 27.0
endloop
endfacet
facet normal 1.1924881E-8 -1.0 0.0
outer loop
vertex 13.5 -1.4999999 18.0
vertex 16.5 -1.4999998 27.0
vertex 9.5 -1.4999999 27.0
endloop
endfacet
facet normal 1.1924881E-8 -1.0 0.0
outer loop
vertex 13.5 -1.4999999 18.0
vertex 9.5 -1.4999999 27.0
vertex 13.5 -1.4999999 15.0
endloop
endfacet
facet normal 1.1924881E-8 -1.0 0.0
outer loop
vertex 22.5 -1.4999998 21.0
vertex 26.5 -1.4999996 21.0
vertex 26.5 -1.4999996 24.0
endloop
endfacet
facet normal 1.1924881E-8 -1.0 0.0
outer loop
vertex 22.5 -1.4999998 21.0
vertex 26.5 -1.4999996 24.0
vertex 16.5 -1.4999998 24.0
endloop
endfacet
facet normal 1.1924881E-8 -1.0 0.0
outer loop
vertex 22.5 -1.4999998 21.0
vertex 16.5 -1.4999998 24.0
vertex 22.5 -1.4999998 18.0
endloop
endfacet
facet normal 1.1924881E-8 -1.0 0.0
outer loop
vertex 9.5 -1.4999999 12.0
vertex 7.5 -1.4999999 9.0
vertex 13.5 -1.4999999 9.0
endloop
endfacet
facet normal 1.1924881E-8 -1.0 0.0
outer loop
vertex 9.5 -1.4999999 12.0
vertex 13.5 -1.4999999 9.0
vertex 13.5 -1.4999999 12.0
endloop
endfacet
facet normal 1.1924881E-8 -1.0 0.0
outer loop
vertex 13.5 -1.4999999 15.0
vertex 9.5 -1.4999999 27.0
vertex 9.5 -1.4999999 15.0
endloop
endfacet
facet normal 1.1924881E-8 -1.0 0.0
outer loop
vertex 7.5 -1.4999999 9.0
vertex 3.5 -1.5 6.0
vertex 7.5 -1.4999999 6.0
endloop
endfacet
facet normal 0.0 -0.0 -1.0
outer loop
vertex 1.5000001 1.5 0.0
vertex 16.5 1.5000002 0.0
vertex 16.5 -1.4999998 0.0
endloop
endfacet
facet normal 0.0 -0.0 -1.0
outer loop
vertex 1.5000001 1.5 0.0
vertex 16.5 -1.4999998 0.0
vertex 1.5000001 -1.5 0.0
endloop
endfacet
facet normal 1.0 1.1924881E-8 0.0
outer loop
vertex 16.5 -1.4999998 0.0
vertex 16.5 1.5000002 0.0
vertex 16.5 1.5000002 3.0
endloop
endfacet
facet normal 1.0 1.1924881E-8 0.0
outer loop
vertex 16.5 -1.4999998 0.0
vertex 16.5 1.5000002 3.0
vertex 16.5 -1.4999998 3.0
endloop
endfacet
facet normal 0.0 0.0 1.0
outer loop
vertex 16.5 1.5000002 3.0
vertex 3.5 1.5 3.0
vertex 3.5 -1.5 3.0
endloop
endfacet
facet normal 0.0 0.0 1.0
outer loop
vertex 16.5 1.5000002 3.0
vertex 3.5 -1.5 3.0
vertex 16.5 -1.4999998 3.0
endloop
endfacet
facet normal 1.0 1.1924881E-8 0.0
outer loop
vertex 3.5 -1.5 3.0
vertex 3.5 1.5 3.0
vertex 3.5 1.5 6.0
endloop
endfacet
facet normal 1.0 1.1924881E-8 0.0
outer loop
vertex 3.5 -1.5 3.0
vertex 3.5 1.5 6.0
vertex 3.5 -1.5 6.0
endloop
endfacet
facet normal 0.0 -0.0 -1.0
outer loop
vertex 3.5 1.5 6.0
vertex 7.5 1.5000001 6.0
vertex 7.5 -1.4999999 6.0
endloop
endfacet
facet normal 0.0 -0.0 -1.0
outer loop
vertex 3.5 1.5 6.0
vertex 7.5 -1.4999999 6.0
vertex 3.5 -1.5 6.0
endloop
endfacet
facet normal 1.0 1.1924881E-8 0.0
outer loop
vertex 7.5 -1.4999999 6.0
vertex 7.5 1.5000001 6.0
vertex 7.5 1.5000001 9.0
endloop
endfacet
facet normal 1.0 1.1924881E-8 0.0
outer loop
vertex 7.5 -1.4999999 6.0
vertex 7.5 1.5000001 9.0
vertex 7.5 -1.4999999 9.0
endloop
endfacet
facet normal 0.0 -0.0 -1.0
outer loop
vertex 7.5 1.5000001 9.0
vertex 13.5 1.5000001 9.0
vertex 13.5 -1.4999999 9.0
endloop
endfacet
facet normal 0.0 -0.0 -1.0
outer loop
vertex 7.5 1.5000001 9.0
vertex 13.5 -1.4999999 9.0
vertex 7.5 -1.4999999 9.0
endloop
endfacet
facet normal 1.0 1.1924881E-8 0.0
outer loop
vertex 13.5 -1.4999999 9.0
vertex 13.5 1.5000001 9.0
vertex 13.5 1.5000001 12.0
endloop
endfacet
facet normal 1.0 1.1924881E-8 0.0
outer loop
vertex 13.5 -1.4999999 9.0
vertex 13.5 1.5000001 12.0
vertex 13.5 -1.4999999 12.0
endloop
endfacet
facet normal 0.0 0.0 1.0
outer loop
vertex 13.5 1.5000001 12.0
vertex 9.5 1.5000001 12.0
vertex 9.5 -1.4999999 12.0
endloop
endfacet
facet normal 0.0 0.0 1.0
outer loop
vertex 13.5 1.5000001 12.0
vertex 9.5 -1.4999999 12.0
vertex 13.5 -1.4999999 12.0
endloop
endfacet
facet normal 1.0 1.1924881E-8 0.0
outer loop
vertex 9.5 -1.4999999 12.0
vertex 9.5 1.5000001 12.0
vertex 9.5 1.5000001 15.0
endloop
endfacet
facet normal 1.0 1.1924881E-8 0.0
outer loop
vertex 9.5 -1.4999999 12.0
vertex 9.5 1.5000001 15.0
vertex 9.5 -1.4999999 15.0
endloop
endfacet
facet normal 0.0 -0.0 -1.0
outer loop
vertex 9.5 1.5000001 15.0
vertex 13.5 1.5000001 15.0
vertex 13.5 -1.4999999 15.0
endloop
endfacet
facet normal 0.0 -0.0 -1.0
outer loop
vertex 9.5 1.5000001 15.0
vertex 13.5 -1.4999999 15.0
vertex 9.5 -1.4999999 15.0
endloop
endfacet
facet normal 1.0 1.1924881E-8 0.0
outer loop
vertex 13.5 -1.4999999 15.0
vertex 13.5 1.5000001 15.0
vertex 13.5 1.5000001 18.0
endloop
endfacet
facet normal 1.0 1.1924881E-8 0.0
outer loop
vertex 13.5 -1.4999999 15.0
vertex 13.5 1.5000001 18.0
vertex 13.5 -1.4999999 18.0
endloop
endfacet
facet normal 0.0 -0.0 -1.0
outer loop
vertex 13.5 1.5000001 18.0
vertex 22.5 1.5000002 18.0
vertex 22.5 -1.4999998 18.0
endloop
endfacet
facet normal 0.0 -0.0 -1.0
outer loop
vertex 13.5 1.5000001 18.0
vertex 22.5 -1.4999998 18.0
vertex 13.5 -1.4999999 18.0
endloop
endfacet
facet normal 1.0 1.1924881E-8 0.0
outer loop
vertex 22.5 -1.4999998 18.0
vertex 22.5 1.5000002 18.0
vertex 22.5 1.5000002 21.0
endloop
endfacet
facet normal 1.0 1.1924881E-8 0.0
outer loop
vertex 22.5 -1.4999998 18.0
vertex 22.5 1.5000002 21.0
vertex 22.5 -1.4999998 21.0
endloop
endfacet
facet normal 0.0 -0.0 -1.0
outer loop
vertex 22.5 1.5000002 21.0
vertex 26.5 1.5000004 21.0
vertex 26.5 -1.4999996 21.0
endloop
endfacet
facet normal 0.0 -0.0 -1.0
outer loop
vertex 22.5 1.5000002 21.0
vertex 26.5 -1.4999996 21.0
vertex 22.5 -1.4999998 21.0
endloop
endfacet
facet normal 1.0 1.1924881E-8 0.0
outer loop
vertex 26.5 -1.4999996 21.0
vertex 26.5 1.5000004 21.0
vertex 26.5 1.5000004 24.0
endloop
endfacet
facet normal 1.0 1.1924881E-8 0.0
outer loop
vertex 26.5 -1.4999996 21.0
vertex 26.5 1.5000004 24.0
vertex 26.5 -1.4999996 24.0
endloop
endfacet
facet normal 0.0 0.0 1.0
outer loop
vertex 26.5 1.5000004 24.0
vertex 16.5 1.5000002 24.0
vertex 16.5 -1.4999998 24.0
endloop
endfacet
facet normal 0.0 0.0 1.0
outer loop
vertex 26.5 1.5000004 24.0
vertex 16.5 -1.4999998 24.0
vertex 26.5 -1.4999996 24.0
endloop
endfacet
facet normal 1.0 1.1924881E-8 0.0
outer loop
vertex 16.5 -1.4999998 24.0
vertex 16.5 1.5000002 24.0
vertex 16.5 1.5000002 27.0
endloop
endfacet
facet normal 1.0 1.1924881E-8 0.0
outer loop
vertex 16.5 -1.4999998 24.0
vertex 16.5 1.5000002 27.0
vertex 16.5 -1.4999998 27.0
endloop
endfacet
facet normal 0.0 0.0 1.0
outer loop
vertex 16.5 1.5000002 27.0
vertex 9.5 1.5000001 27.0
vertex 9.5 -1.4999999 27.0
endloop
endfacet
facet normal 0.0 0.0 1.0
outer loop
vertex 16.5 1.5000002 27.0
vertex 9.5 -1.4999999 27.0
vertex 16.5 -1.4999998 27.0
endloop
endfacet
facet normal 1.0 1.1924881E-8 0.0
outer loop
vertex 9.5 -1.4999999 27.0
vertex 9.5 1.5000001 27.0
vertex 9.5 1.5000001 30.0
endloop
endfacet
facet normal 1.0 1.1924881E-8 0.0
outer loop
vertex 9.5 -1.4999999 27.0
vertex 9.5 1.5000001 30.0
vertex 9.5 -1.4999999 30.0
endloop
endfacet
facet normal 0.0 0.0 1.0
outer loop
vertex 9.5 1.5000001 30.0
vertex 1.5000001 1.5 30.0
vertex 1.5000001 -1.5 30.0
endloop
endfacet
facet normal 0.0 0.0 1.0
outer loop
vertex 9.5 1.5000001 30.0
vertex 1.5000001 -1.5 30.0
vertex 9.5 -1.4999999 30.0
endloop
endfacet
facet normal 0.0 0.0 -1.0
outer loop
vertex 1.5000001 -1.5 0.0
vertex 1.5 1.5 0.0
vertex 1.5000001 1.5 0.0
endloop
endfacet
facet normal 0.0 0.0 -1.0
outer loop
vertex 1.5000001 -1.5 30.0
vertex 1.5 1.5 30.0
vertex 1.5000001 1.5 30.0
endloop
endfacet
facet normal 0.0 0.0 1.0
outer loop
vertex 1.5 1.5 0.0
vertex -1.5 1.4999999 0.0
vertex -1.4999999 -1.5 0.0
endloop
endfacet
facet normal 0.0 0.0 1.0
outer loop
vertex 1.5 1.5 0.0
vertex -1.4999999 -1.5 0.0
vertex 1.5000001 -1.5 0.0
endloop
endfacet
facet normal 0.0 0.0 1.0
outer loop
vertex 1.5 1.5 30.0
vertex -1.5 1.4999999 30.0
vertex -1.4999999 -1.5 30.0
endloop
endfacet
facet normal 0.0 0.0 1.0
outer loop
vertex 1.5 1.5 30.0
vertex -1.4999999 -1.5 30.0
vertex 1.5000001 -1.5 30.0
endloop
endfacet
endsolid /home/benoit/Documents/WORK/2022/Emilie_Perotto/code/project/main/data/data2
