solid export/result
facet normal 1.0 0.0 0.0
outer loop
vertex -1.5 12.52 6.0
vertex -1.5 9.54 9.0
vertex -1.5 1.4999999 0.0
endloop
endfacet
facet normal 1.0 0.0 0.0
outer loop
vertex -1.5 2.7599998 21.0
vertex -1.5 1.4999999 0.0
vertex -1.5 9.54 9.0
endloop
endfacet
facet normal 1.0 0.0 0.0
outer loop
vertex -1.5 1.4999999 0.0
vertex -1.5 2.7599998 21.0
vertex -1.5 1.4999999 30.0
endloop
endfacet
facet normal 1.0 0.0 0.0
outer loop
vertex -1.5 2.1599998 27.0
vertex -1.5 1.4999999 30.0
vertex -1.5 2.7599998 21.0
endloop
endfacet
facet normal 1.0 0.0 0.0
outer loop
vertex -1.5 1.4999999 30.0
vertex -1.5 2.1599998 27.0
vertex -1.5 2.1599998 30.0
endloop
endfacet
facet normal 1.0 0.0 0.0
outer loop
vertex -1.5 2.5299997 24.0
vertex -1.5 2.5299997 27.0
vertex -1.5 2.1599998 27.0
endloop
endfacet
facet normal 1.0 0.0 0.0
outer loop
vertex -1.5 2.5299997 24.0
vertex -1.5 2.1599998 27.0
vertex -1.5 2.7599998 21.0
endloop
endfacet
facet normal 1.0 0.0 0.0
outer loop
vertex -1.5 2.5299997 24.0
vertex -1.5 2.7599998 21.0
vertex -1.5 2.7599998 24.0
endloop
endfacet
facet normal 1.0 0.0 0.0
outer loop
vertex -1.5 9.54 12.0
vertex -1.5 8.74 12.0
vertex -1.5 9.54 9.0
endloop
endfacet
facet normal 1.0 0.0 0.0
outer loop
vertex -1.5 6.95 15.0
vertex -1.5 9.54 9.0
vertex -1.5 8.74 12.0
endloop
endfacet
facet normal 1.0 0.0 0.0
outer loop
vertex -1.5 9.54 9.0
vertex -1.5 6.95 15.0
vertex -1.5 2.7599998 21.0
endloop
endfacet
facet normal 1.0 0.0 0.0
outer loop
vertex -1.5 5.78 18.0
vertex -1.5 2.7599998 21.0
vertex -1.5 6.95 15.0
endloop
endfacet
facet normal 1.0 0.0 0.0
outer loop
vertex -1.5 2.7599998 21.0
vertex -1.5 5.78 18.0
vertex -1.5 5.78 21.0
endloop
endfacet
facet normal 1.0 0.0 0.0
outer loop
vertex -1.5 15.63 3.0
vertex -1.5 15.63 6.0
vertex -1.5 12.52 6.0
endloop
endfacet
facet normal 1.0 0.0 0.0
outer loop
vertex -1.5 15.63 3.0
vertex -1.5 12.52 6.0
vertex -1.5 1.4999999 0.0
endloop
endfacet
facet normal 1.0 0.0 0.0
outer loop
vertex -1.5 15.63 3.0
vertex -1.5 1.4999999 0.0
vertex -1.5 28.5 0.0
endloop
endfacet
facet normal 1.0 0.0 0.0
outer loop
vertex -1.5 15.63 3.0
vertex -1.5 28.5 0.0
vertex -1.5 28.5 3.0
endloop
endfacet
facet normal 1.0 0.0 0.0
outer loop
vertex -1.5 12.52 9.0
vertex -1.5 9.54 9.0
vertex -1.5 12.52 6.0
endloop
endfacet
facet normal 1.0 0.0 0.0
outer loop
vertex -1.5 8.74 15.0
vertex -1.5 6.95 15.0
vertex -1.5 8.74 12.0
endloop
endfacet
facet normal 1.0 0.0 0.0
outer loop
vertex -1.5 6.95 18.0
vertex -1.5 5.78 18.0
vertex -1.5 6.95 15.0
endloop
endfacet
facet normal 1.0 0.0 0.0
outer loop
vertex 1.5 12.52 6.0
vertex 1.5 9.54 9.0
vertex 1.5 1.4999999 0.0
endloop
endfacet
facet normal 1.0 0.0 0.0
outer loop
vertex 1.5 2.7599998 21.0
vertex 1.5 1.4999999 0.0
vertex 1.5 9.54 9.0
endloop
endfacet
facet normal 1.0 0.0 0.0
outer loop
vertex 1.5 1.4999999 0.0
vertex 1.5 2.7599998 21.0
vertex 1.5 1.4999999 30.0
endloop
endfacet
facet normal 1.0 0.0 0.0
outer loop
vertex 1.5 2.1599998 27.0
vertex 1.5 1.4999999 30.0
vertex 1.5 2.7599998 21.0
endloop
endfacet
facet normal 1.0 0.0 0.0
outer loop
vertex 1.5 1.4999999 30.0
vertex 1.5 2.1599998 27.0
vertex 1.5 2.1599998 30.0
endloop
endfacet
facet normal 1.0 0.0 0.0
outer loop
vertex 1.5 2.5299997 24.0
vertex 1.5 2.5299997 27.0
vertex 1.5 2.1599998 27.0
endloop
endfacet
facet normal 1.0 0.0 0.0
outer loop
vertex 1.5 2.5299997 24.0
vertex 1.5 2.1599998 27.0
vertex 1.5 2.7599998 21.0
endloop
endfacet
facet normal 1.0 0.0 0.0
outer loop
vertex 1.5 2.5299997 24.0
vertex 1.5 2.7599998 21.0
vertex 1.5 2.7599998 24.0
endloop
endfacet
facet normal 1.0 0.0 0.0
outer loop
vertex 1.5 9.54 12.0
vertex 1.5 8.74 12.0
vertex 1.5 9.54 9.0
endloop
endfacet
facet normal 1.0 0.0 0.0
outer loop
vertex 1.5 6.95 15.0
vertex 1.5 9.54 9.0
vertex 1.5 8.74 12.0
endloop
endfacet
facet normal 1.0 0.0 0.0
outer loop
vertex 1.5 9.54 9.0
vertex 1.5 6.95 15.0
vertex 1.5 2.7599998 21.0
endloop
endfacet
facet normal 1.0 0.0 0.0
outer loop
vertex 1.5 5.78 18.0
vertex 1.5 2.7599998 21.0
vertex 1.5 6.95 15.0
endloop
endfacet
facet normal 1.0 0.0 0.0
outer loop
vertex 1.5 2.7599998 21.0
vertex 1.5 5.78 18.0
vertex 1.5 5.78 21.0
endloop
endfacet
facet normal 1.0 0.0 0.0
outer loop
vertex 1.5 15.63 3.0
vertex 1.5 15.63 6.0
vertex 1.5 12.52 6.0
endloop
endfacet
facet normal 1.0 0.0 0.0
outer loop
vertex 1.5 15.63 3.0
vertex 1.5 12.52 6.0
vertex 1.5 1.4999999 0.0
endloop
endfacet
facet normal 1.0 0.0 0.0
outer loop
vertex 1.5 15.63 3.0
vertex 1.5 1.4999999 0.0
vertex 1.5 28.5 0.0
endloop
endfacet
facet normal 1.0 0.0 0.0
outer loop
vertex 1.5 15.63 3.0
vertex 1.5 28.5 0.0
vertex 1.5 28.5 3.0
endloop
endfacet
facet normal 1.0 0.0 0.0
outer loop
vertex 1.5 -1.4999999 30.0
vertex 1.5 -1.4999999 0.0
vertex 1.5 1.4999999 0.0
endloop
endfacet
facet normal 1.0 0.0 0.0
outer loop
vertex 1.5 -1.4999999 30.0
vertex 1.5 1.4999999 0.0
vertex 1.5 1.4999999 30.0
endloop
endfacet
facet normal 1.0 0.0 0.0
outer loop
vertex 1.5 12.52 9.0
vertex 1.5 9.54 9.0
vertex 1.5 12.52 6.0
endloop
endfacet
facet normal 1.0 0.0 0.0
outer loop
vertex 1.5 8.74 15.0
vertex 1.5 6.95 15.0
vertex 1.5 8.74 12.0
endloop
endfacet
facet normal 1.0 0.0 0.0
outer loop
vertex 1.5 6.95 18.0
vertex 1.5 5.78 18.0
vertex 1.5 6.95 15.0
endloop
endfacet
facet normal 0.0 0.0 -1.0
outer loop
vertex -1.5 1.4999999 0.0
vertex -1.5 28.5 0.0
vertex 1.5 28.5 0.0
endloop
endfacet
facet normal 0.0 0.0 -1.0
outer loop
vertex -1.5 1.4999999 0.0
vertex 1.5 28.5 0.0
vertex 1.5 1.4999999 0.0
endloop
endfacet
facet normal 0.0 1.0 0.0
outer loop
vertex 1.5 28.5 0.0
vertex -1.5 28.5 0.0
vertex -1.5 28.5 3.0
endloop
endfacet
facet normal 0.0 1.0 0.0
outer loop
vertex 1.5 28.5 0.0
vertex -1.5 28.5 3.0
vertex 1.5 28.5 3.0
endloop
endfacet
facet normal 0.0 0.0 1.0
outer loop
vertex -1.5 28.5 3.0
vertex -1.5 15.63 3.0
vertex 1.5 15.63 3.0
endloop
endfacet
facet normal 0.0 0.0 1.0
outer loop
vertex -1.5 28.5 3.0
vertex 1.5 15.63 3.0
vertex 1.5 28.5 3.0
endloop
endfacet
facet normal 0.0 1.0 0.0
outer loop
vertex 1.5 15.63 3.0
vertex -1.5 15.63 3.0
vertex -1.5 15.63 6.0
endloop
endfacet
facet normal 0.0 1.0 0.0
outer loop
vertex 1.5 15.63 3.0
vertex -1.5 15.63 6.0
vertex 1.5 15.63 6.0
endloop
endfacet
facet normal 0.0 0.0 1.0
outer loop
vertex -1.5 15.63 6.0
vertex -1.5 12.52 6.0
vertex 1.5 12.52 6.0
endloop
endfacet
facet normal 0.0 0.0 1.0
outer loop
vertex -1.5 15.63 6.0
vertex 1.5 12.52 6.0
vertex 1.5 15.63 6.0
endloop
endfacet
facet normal 0.0 1.0 0.0
outer loop
vertex 1.5 12.52 6.0
vertex -1.5 12.52 6.0
vertex -1.5 12.52 9.0
endloop
endfacet
facet normal 0.0 1.0 0.0
outer loop
vertex 1.5 12.52 6.0
vertex -1.5 12.52 9.0
vertex 1.5 12.52 9.0
endloop
endfacet
facet normal 0.0 0.0 1.0
outer loop
vertex -1.5 12.52 9.0
vertex -1.5 9.54 9.0
vertex 1.5 9.54 9.0
endloop
endfacet
facet normal 0.0 0.0 1.0
outer loop
vertex -1.5 12.52 9.0
vertex 1.5 9.54 9.0
vertex 1.5 12.52 9.0
endloop
endfacet
facet normal 0.0 1.0 0.0
outer loop
vertex 1.5 9.54 9.0
vertex -1.5 9.54 9.0
vertex -1.5 9.54 12.0
endloop
endfacet
facet normal 0.0 1.0 0.0
outer loop
vertex 1.5 9.54 9.0
vertex -1.5 9.54 12.0
vertex 1.5 9.54 12.0
endloop
endfacet
facet normal 0.0 0.0 1.0
outer loop
vertex -1.5 9.54 12.0
vertex -1.5 8.74 12.0
vertex 1.5 8.74 12.0
endloop
endfacet
facet normal 0.0 0.0 1.0
outer loop
vertex -1.5 9.54 12.0
vertex 1.5 8.74 12.0
vertex 1.5 9.54 12.0
endloop
endfacet
facet normal 0.0 1.0 0.0
outer loop
vertex 1.5 8.74 12.0
vertex -1.5 8.74 12.0
vertex -1.5 8.74 15.0
endloop
endfacet
facet normal 0.0 1.0 0.0
outer loop
vertex 1.5 8.74 12.0
vertex -1.5 8.74 15.0
vertex 1.5 8.74 15.0
endloop
endfacet
facet normal 0.0 0.0 1.0
outer loop
vertex -1.5 8.74 15.0
vertex -1.5 6.95 15.0
vertex 1.5 6.95 15.0
endloop
endfacet
facet normal 0.0 0.0 1.0
outer loop
vertex -1.5 8.74 15.0
vertex 1.5 6.95 15.0
vertex 1.5 8.74 15.0
endloop
endfacet
facet normal 0.0 1.0 0.0
outer loop
vertex 1.5 6.95 15.0
vertex -1.5 6.95 15.0
vertex -1.5 6.95 18.0
endloop
endfacet
facet normal 0.0 1.0 0.0
outer loop
vertex 1.5 6.95 15.0
vertex -1.5 6.95 18.0
vertex 1.5 6.95 18.0
endloop
endfacet
facet normal 0.0 0.0 1.0
outer loop
vertex -1.5 6.95 18.0
vertex -1.5 5.78 18.0
vertex 1.5 5.78 18.0
endloop
endfacet
facet normal 0.0 0.0 1.0
outer loop
vertex -1.5 6.95 18.0
vertex 1.5 5.78 18.0
vertex 1.5 6.95 18.0
endloop
endfacet
facet normal 0.0 1.0 0.0
outer loop
vertex 1.5 5.78 18.0
vertex -1.5 5.78 18.0
vertex -1.5 5.78 21.0
endloop
endfacet
facet normal 0.0 1.0 0.0
outer loop
vertex 1.5 5.78 18.0
vertex -1.5 5.78 21.0
vertex 1.5 5.78 21.0
endloop
endfacet
facet normal 0.0 0.0 1.0
outer loop
vertex -1.5 5.78 21.0
vertex -1.5 2.7599998 21.0
vertex 1.5 2.7599998 21.0
endloop
endfacet
facet normal 0.0 0.0 1.0
outer loop
vertex -1.5 5.78 21.0
vertex 1.5 2.7599998 21.0
vertex 1.5 5.78 21.0
endloop
endfacet
facet normal 0.0 1.0 0.0
outer loop
vertex 1.5 2.7599998 21.0
vertex -1.5 2.7599998 21.0
vertex -1.5 2.7599998 24.0
endloop
endfacet
facet normal 0.0 1.0 0.0
outer loop
vertex 1.5 2.7599998 21.0
vertex -1.5 2.7599998 24.0
vertex 1.5 2.7599998 24.0
endloop
endfacet
facet normal 0.0 0.0 1.0
outer loop
vertex -1.5 2.7599998 24.0
vertex -1.5 2.5299997 24.0
vertex 1.5 2.5299997 24.0
endloop
endfacet
facet normal 0.0 0.0 1.0
outer loop
vertex -1.5 2.7599998 24.0
vertex 1.5 2.5299997 24.0
vertex 1.5 2.7599998 24.0
endloop
endfacet
facet normal 0.0 1.0 0.0
outer loop
vertex 1.5 2.5299997 24.0
vertex -1.5 2.5299997 24.0
vertex -1.5 2.5299997 27.0
endloop
endfacet
facet normal 0.0 1.0 0.0
outer loop
vertex 1.5 2.5299997 24.0
vertex -1.5 2.5299997 27.0
vertex 1.5 2.5299997 27.0
endloop
endfacet
facet normal 0.0 0.0 1.0
outer loop
vertex -1.5 2.5299997 27.0
vertex -1.5 2.1599998 27.0
vertex 1.5 2.1599998 27.0
endloop
endfacet
facet normal 0.0 0.0 1.0
outer loop
vertex -1.5 2.5299997 27.0
vertex 1.5 2.1599998 27.0
vertex 1.5 2.5299997 27.0
endloop
endfacet
facet normal 0.0 1.0 0.0
outer loop
vertex 1.5 2.1599998 27.0
vertex -1.5 2.1599998 27.0
vertex -1.5 2.1599998 30.0
endloop
endfacet
facet normal 0.0 1.0 0.0
outer loop
vertex 1.5 2.1599998 27.0
vertex -1.5 2.1599998 30.0
vertex 1.5 2.1599998 30.0
endloop
endfacet
facet normal 0.0 0.0 1.0
outer loop
vertex -1.5 2.1599998 30.0
vertex -1.5 1.4999999 30.0
vertex 1.5 1.4999999 30.0
endloop
endfacet
facet normal 0.0 0.0 1.0
outer loop
vertex -1.5 2.1599998 30.0
vertex 1.5 1.4999999 30.0
vertex 1.5 2.1599998 30.0
endloop
endfacet
facet normal 0.0 0.0 1.0
outer loop
vertex 1.5 1.4999999 0.0
vertex -1.5 1.4999999 0.0
vertex 1.5 -1.4999999 0.0
endloop
endfacet
facet normal 0.0 0.0 1.0
outer loop
vertex 1.5 1.4999999 30.0
vertex -1.5 1.4999999 30.0
vertex 1.5 -1.4999999 30.0
endloop
endfacet
facet normal -4.371139E-8 1.0 0.0
outer loop
vertex -14.74 -1.5000006 26.999998
vertex -28.48 -1.5000012 26.999998
vertex -28.48 -1.5000012 29.999998
endloop
endfacet
facet normal -4.371139E-8 1.0 0.0
outer loop
vertex -14.74 -1.5000006 26.999998
vertex -28.48 -1.5000012 29.999998
vertex -1.4999998 -1.5000001 29.999998
endloop
endfacet
facet normal -4.371139E-8 1.0 0.0
outer loop
vertex -14.74 -1.5000006 26.999998
vertex -1.4999998 -1.5000001 29.999998
vertex -2.62 -1.5000001 14.999999
endloop
endfacet
facet normal -4.371139E-8 1.0 0.0
outer loop
vertex -14.74 -1.5000006 26.999998
vertex -2.62 -1.5000001 14.999999
vertex -12.27 -1.5000005 20.999998
endloop
endfacet
facet normal -4.371139E-8 1.0 0.0
outer loop
vertex -14.74 -1.5000006 26.999998
vertex -12.27 -1.5000005 20.999998
vertex -14.74 -1.5000006 23.999998
endloop
endfacet
facet normal -4.371139E-8 1.0 0.0
outer loop
vertex -12.27 -1.5000005 17.999998
vertex -12.27 -1.5000005 20.999998
vertex -2.62 -1.5000001 14.999999
endloop
endfacet
facet normal -4.371139E-8 1.0 0.0
outer loop
vertex -12.27 -1.5000005 17.999998
vertex -2.62 -1.5000001 14.999999
vertex -24.83 -1.5000011 14.999999
endloop
endfacet
facet normal -4.371139E-8 1.0 0.0
outer loop
vertex -12.27 -1.5000005 17.999998
vertex -24.83 -1.5000011 14.999999
vertex -24.83 -1.5000011 17.999998
endloop
endfacet
facet normal -4.371139E-8 1.0 0.0
outer loop
vertex -14.49 -1.5000006 2.9999998
vertex -14.49 -1.5000006 5.9999995
vertex -3.2999997 -1.5000001 2.9999998
endloop
endfacet
facet normal -4.371139E-8 1.0 0.0
outer loop
vertex -3.0299997 -1.5000001 5.9999995
vertex -3.2999997 -1.5000001 2.9999998
vertex -14.49 -1.5000006 5.9999995
endloop
endfacet
facet normal -4.371139E-8 1.0 0.0
outer loop
vertex -3.2999997 -1.5000001 2.9999998
vertex -3.0299997 -1.5000001 5.9999995
vertex -3.2999997 -1.5000001 0.0
endloop
endfacet
facet normal -4.371139E-8 1.0 0.0
outer loop
vertex -2.62 -1.5000001 11.999999
vertex -3.2999997 -1.5000001 0.0
vertex -3.0299997 -1.5000001 5.9999995
endloop
endfacet
facet normal -4.371139E-8 1.0 0.0
outer loop
vertex -3.2999997 -1.5000001 0.0
vertex -2.62 -1.5000001 11.999999
vertex -1.4999998 -1.5000001 29.999998
endloop
endfacet
facet normal -4.371139E-8 1.0 0.0
outer loop
vertex -2.62 -1.5000001 14.999999
vertex -1.4999998 -1.5000001 29.999998
vertex -2.62 -1.5000001 11.999999
endloop
endfacet
facet normal -4.371139E-8 1.0 0.0
outer loop
vertex -14.74 -1.5000006 23.999998
vertex -12.27 -1.5000005 20.999998
vertex -18.55 -1.5000008 20.999998
endloop
endfacet
facet normal -4.371139E-8 1.0 0.0
outer loop
vertex -14.74 -1.5000006 23.999998
vertex -18.55 -1.5000008 20.999998
vertex -18.55 -1.5000008 23.999998
endloop
endfacet
facet normal -4.371139E-8 1.0 0.0
outer loop
vertex -3.0299997 -1.5000001 8.999999
vertex -27.98 -1.5000012 8.999999
vertex -27.98 -1.5000012 11.999999
endloop
endfacet
facet normal -4.371139E-8 1.0 0.0
outer loop
vertex -3.0299997 -1.5000001 8.999999
vertex -27.98 -1.5000012 11.999999
vertex -2.62 -1.5000001 11.999999
endloop
endfacet
facet normal -4.371139E-8 1.0 0.0
outer loop
vertex -3.0299997 -1.5000001 8.999999
vertex -2.62 -1.5000001 11.999999
vertex -3.0299997 -1.5000001 5.9999995
endloop
endfacet
facet normal -4.371139E-8 1.0 0.0
outer loop
vertex -1.4999998 -1.5000001 0.0
vertex -3.2999997 -1.5000001 0.0
vertex -1.4999998 -1.5000001 29.999998
endloop
endfacet
facet normal -4.371139E-8 1.0 0.0
outer loop
vertex -1.4999998 -1.5000001 0.0
vertex -1.4999998 -1.5000001 29.999998
vertex 1.5 -1.4999999 29.999998
endloop
endfacet
facet normal -4.371139E-8 1.0 0.0
outer loop
vertex -1.4999998 -1.5000001 0.0
vertex 1.5 -1.4999999 29.999998
vertex 1.5 -1.4999999 0.0
endloop
endfacet
facet normal -4.371139E-8 1.0 0.0
outer loop
vertex -14.74 1.4999994 26.999998
vertex -28.48 1.4999988 26.999998
vertex -28.48 1.4999988 29.999998
endloop
endfacet
facet normal -4.371139E-8 1.0 0.0
outer loop
vertex -14.74 1.4999994 26.999998
vertex -28.48 1.4999988 29.999998
vertex -1.5 1.4999999 29.999998
endloop
endfacet
facet normal -4.371139E-8 1.0 0.0
outer loop
vertex -14.74 1.4999994 26.999998
vertex -1.5 1.4999999 29.999998
vertex -2.62 1.4999999 14.999999
endloop
endfacet
facet normal -4.371139E-8 1.0 0.0
outer loop
vertex -14.74 1.4999994 26.999998
vertex -2.62 1.4999999 14.999999
vertex -12.27 1.4999995 20.999998
endloop
endfacet
facet normal -4.371139E-8 1.0 0.0
outer loop
vertex -14.74 1.4999994 26.999998
vertex -12.27 1.4999995 20.999998
vertex -14.74 1.4999994 23.999998
endloop
endfacet
facet normal -4.371139E-8 1.0 0.0
outer loop
vertex -12.27 1.4999995 17.999998
vertex -12.27 1.4999995 20.999998
vertex -2.62 1.4999999 14.999999
endloop
endfacet
facet normal -4.371139E-8 1.0 0.0
outer loop
vertex -12.27 1.4999995 17.999998
vertex -2.62 1.4999999 14.999999
vertex -24.83 1.4999989 14.999999
endloop
endfacet
facet normal -4.371139E-8 1.0 0.0
outer loop
vertex -12.27 1.4999995 17.999998
vertex -24.83 1.4999989 14.999999
vertex -24.83 1.4999989 17.999998
endloop
endfacet
facet normal -4.371139E-8 1.0 0.0
outer loop
vertex -14.49 1.4999994 2.9999998
vertex -14.49 1.4999994 5.9999995
vertex -3.2999997 1.4999999 2.9999998
endloop
endfacet
facet normal -4.371139E-8 1.0 0.0
outer loop
vertex -3.0299997 1.4999999 5.9999995
vertex -3.2999997 1.4999999 2.9999998
vertex -14.49 1.4999994 5.9999995
endloop
endfacet
facet normal -4.371139E-8 1.0 0.0
outer loop
vertex -3.2999997 1.4999999 2.9999998
vertex -3.0299997 1.4999999 5.9999995
vertex -3.2999997 1.4999999 0.0
endloop
endfacet
facet normal -4.371139E-8 1.0 0.0
outer loop
vertex -2.62 1.4999999 11.999999
vertex -3.2999997 1.4999999 0.0
vertex -3.0299997 1.4999999 5.9999995
endloop
endfacet
facet normal -4.371139E-8 1.0 0.0
outer loop
vertex -3.2999997 1.4999999 0.0
vertex -2.62 1.4999999 11.999999
vertex -1.5 1.4999999 29.999998
endloop
endfacet
facet normal -4.371139E-8 1.0 0.0
outer loop
vertex -2.62 1.4999999 14.999999
vertex -1.5 1.4999999 29.999998
vertex -2.62 1.4999999 11.999999
endloop
endfacet
facet normal -4.371139E-8 1.0 0.0
outer loop
vertex -14.74 1.4999994 23.999998
vertex -12.27 1.4999995 20.999998
vertex -18.55 1.4999992 20.999998
endloop
endfacet
facet normal -4.371139E-8 1.0 0.0
outer loop
vertex -14.74 1.4999994 23.999998
vertex -18.55 1.4999992 20.999998
vertex -18.55 1.4999992 23.999998
endloop
endfacet
facet normal -4.371139E-8 1.0 0.0
outer loop
vertex -3.0299997 1.4999999 8.999999
vertex -27.98 1.4999988 8.999999
vertex -27.98 1.4999988 11.999999
endloop
endfacet
facet normal -4.371139E-8 1.0 0.0
outer loop
vertex -3.0299997 1.4999999 8.999999
vertex -27.98 1.4999988 11.999999
vertex -2.62 1.4999999 11.999999
endloop
endfacet
facet normal -4.371139E-8 1.0 0.0
outer loop
vertex -3.0299997 1.4999999 8.999999
vertex -2.62 1.4999999 11.999999
vertex -3.0299997 1.4999999 5.9999995
endloop
endfacet
facet normal -4.371139E-8 1.0 0.0
outer loop
vertex -3.2999997 1.4999999 0.0
vertex -1.5 1.4999999 29.999998
vertex -1.5 1.4999999 0.0
endloop
endfacet
facet normal 0.0 0.0 -0.99999994
outer loop
vertex -1.4999998 -1.5000001 0.0
vertex -3.2999997 -1.5000001 0.0
vertex -3.2999997 1.4999999 0.0
endloop
endfacet
facet normal 0.0 0.0 -0.99999994
outer loop
vertex -1.4999998 -1.5000001 0.0
vertex -3.2999997 1.4999999 0.0
vertex -1.5 1.4999999 0.0
endloop
endfacet
facet normal -1.0 -4.371139E-8 0.0
outer loop
vertex -3.2999997 1.4999999 0.0
vertex -3.2999997 -1.5000001 0.0
vertex -3.2999997 -1.5000001 2.9999998
endloop
endfacet
facet normal -1.0 -4.371139E-8 0.0
outer loop
vertex -3.2999997 1.4999999 0.0
vertex -3.2999997 -1.5000001 2.9999998
vertex -3.2999997 1.4999999 2.9999998
endloop
endfacet
facet normal 0.0 0.0 -0.99999994
outer loop
vertex -3.2999997 -1.5000001 2.9999998
vertex -14.49 -1.5000006 2.9999998
vertex -14.49 1.4999994 2.9999998
endloop
endfacet
facet normal 0.0 0.0 -0.99999994
outer loop
vertex -3.2999997 -1.5000001 2.9999998
vertex -14.49 1.4999994 2.9999998
vertex -3.2999997 1.4999999 2.9999998
endloop
endfacet
facet normal -1.0 -4.371139E-8 0.0
outer loop
vertex -14.49 1.4999994 2.9999998
vertex -14.49 -1.5000006 2.9999998
vertex -14.49 -1.5000006 5.9999995
endloop
endfacet
facet normal -1.0 -4.371139E-8 0.0
outer loop
vertex -14.49 1.4999994 2.9999998
vertex -14.49 -1.5000006 5.9999995
vertex -14.49 1.4999994 5.9999995
endloop
endfacet
facet normal 0.0 0.0 0.99999994
outer loop
vertex -14.49 -1.5000006 5.9999995
vertex -3.0299997 -1.5000001 5.9999995
vertex -3.0299997 1.4999999 5.9999995
endloop
endfacet
facet normal 0.0 0.0 0.99999994
outer loop
vertex -14.49 -1.5000006 5.9999995
vertex -3.0299997 1.4999999 5.9999995
vertex -14.49 1.4999994 5.9999995
endloop
endfacet
facet normal -1.0 -4.371139E-8 0.0
outer loop
vertex -3.0299997 1.4999999 5.9999995
vertex -3.0299997 -1.5000001 5.9999995
vertex -3.0299997 -1.5000001 8.999999
endloop
endfacet
facet normal -1.0 -4.371139E-8 0.0
outer loop
vertex -3.0299997 1.4999999 5.9999995
vertex -3.0299997 -1.5000001 8.999999
vertex -3.0299997 1.4999999 8.999999
endloop
endfacet
facet normal 0.0 0.0 -0.99999994
outer loop
vertex -3.0299997 -1.5000001 8.999999
vertex -27.98 -1.5000012 8.999999
vertex -27.98 1.4999988 8.999999
endloop
endfacet
facet normal 0.0 0.0 -0.99999994
outer loop
vertex -3.0299997 -1.5000001 8.999999
vertex -27.98 1.4999988 8.999999
vertex -3.0299997 1.4999999 8.999999
endloop
endfacet
facet normal -1.0 -4.371139E-8 0.0
outer loop
vertex -27.98 1.4999988 8.999999
vertex -27.98 -1.5000012 8.999999
vertex -27.98 -1.5000012 11.999999
endloop
endfacet
facet normal -1.0 -4.371139E-8 0.0
outer loop
vertex -27.98 1.4999988 8.999999
vertex -27.98 -1.5000012 11.999999
vertex -27.98 1.4999988 11.999999
endloop
endfacet
facet normal 0.0 0.0 0.99999994
outer loop
vertex -27.98 -1.5000012 11.999999
vertex -2.62 -1.5000001 11.999999
vertex -2.62 1.4999999 11.999999
endloop
endfacet
facet normal 0.0 0.0 0.99999994
outer loop
vertex -27.98 -1.5000012 11.999999
vertex -2.62 1.4999999 11.999999
vertex -27.98 1.4999988 11.999999
endloop
endfacet
facet normal -1.0 -4.371139E-8 0.0
outer loop
vertex -2.62 1.4999999 11.999999
vertex -2.62 -1.5000001 11.999999
vertex -2.62 -1.5000001 14.999999
endloop
endfacet
facet normal -1.0 -4.371139E-8 0.0
outer loop
vertex -2.62 1.4999999 11.999999
vertex -2.62 -1.5000001 14.999999
vertex -2.62 1.4999999 14.999999
endloop
endfacet
facet normal 0.0 0.0 -0.99999994
outer loop
vertex -2.62 -1.5000001 14.999999
vertex -24.83 -1.5000011 14.999999
vertex -24.83 1.4999989 14.999999
endloop
endfacet
facet normal 0.0 0.0 -0.99999994
outer loop
vertex -2.62 -1.5000001 14.999999
vertex -24.83 1.4999989 14.999999
vertex -2.62 1.4999999 14.999999
endloop
endfacet
facet normal -1.0 -4.371139E-8 0.0
outer loop
vertex -24.83 1.4999989 14.999999
vertex -24.83 -1.5000011 14.999999
vertex -24.83 -1.5000011 17.999998
endloop
endfacet
facet normal -1.0 -4.371139E-8 0.0
outer loop
vertex -24.83 1.4999989 14.999999
vertex -24.83 -1.5000011 17.999998
vertex -24.83 1.4999989 17.999998
endloop
endfacet
facet normal 0.0 0.0 0.99999994
outer loop
vertex -24.83 -1.5000011 17.999998
vertex -12.27 -1.5000005 17.999998
vertex -12.27 1.4999995 17.999998
endloop
endfacet
facet normal 0.0 0.0 0.99999994
outer loop
vertex -24.83 -1.5000011 17.999998
vertex -12.27 1.4999995 17.999998
vertex -24.83 1.4999989 17.999998
endloop
endfacet
facet normal -1.0 -4.371139E-8 0.0
outer loop
vertex -12.27 1.4999995 17.999998
vertex -12.27 -1.5000005 17.999998
vertex -12.27 -1.5000005 20.999998
endloop
endfacet
facet normal -1.0 -4.371139E-8 0.0
outer loop
vertex -12.27 1.4999995 17.999998
vertex -12.27 -1.5000005 20.999998
vertex -12.27 1.4999995 20.999998
endloop
endfacet
facet normal 0.0 0.0 -0.99999994
outer loop
vertex -12.27 -1.5000005 20.999998
vertex -18.55 -1.5000008 20.999998
vertex -18.55 1.4999992 20.999998
endloop
endfacet
facet normal 0.0 0.0 -0.99999994
outer loop
vertex -12.27 -1.5000005 20.999998
vertex -18.55 1.4999992 20.999998
vertex -12.27 1.4999995 20.999998
endloop
endfacet
facet normal -1.0 -4.371139E-8 0.0
outer loop
vertex -18.55 1.4999992 20.999998
vertex -18.55 -1.5000008 20.999998
vertex -18.55 -1.5000008 23.999998
endloop
endfacet
facet normal -1.0 -4.371139E-8 0.0
outer loop
vertex -18.55 1.4999992 20.999998
vertex -18.55 -1.5000008 23.999998
vertex -18.55 1.4999992 23.999998
endloop
endfacet
facet normal 0.0 0.0 0.99999994
outer loop
vertex -18.55 -1.5000008 23.999998
vertex -14.74 -1.5000006 23.999998
vertex -14.74 1.4999994 23.999998
endloop
endfacet
facet normal 0.0 0.0 0.99999994
outer loop
vertex -18.55 -1.5000008 23.999998
vertex -14.74 1.4999994 23.999998
vertex -18.55 1.4999992 23.999998
endloop
endfacet
facet normal -1.0 -4.371139E-8 0.0
outer loop
vertex -14.74 1.4999994 23.999998
vertex -14.74 -1.5000006 23.999998
vertex -14.74 -1.5000006 26.999998
endloop
endfacet
facet normal -1.0 -4.371139E-8 0.0
outer loop
vertex -14.74 1.4999994 23.999998
vertex -14.74 -1.5000006 26.999998
vertex -14.74 1.4999994 26.999998
endloop
endfacet
facet normal 0.0 0.0 -0.99999994
outer loop
vertex -14.74 -1.5000006 26.999998
vertex -28.48 -1.5000012 26.999998
vertex -28.48 1.4999988 26.999998
endloop
endfacet
facet normal 0.0 0.0 -0.99999994
outer loop
vertex -14.74 -1.5000006 26.999998
vertex -28.48 1.4999988 26.999998
vertex -14.74 1.4999994 26.999998
endloop
endfacet
facet normal -1.0 -4.371139E-8 0.0
outer loop
vertex -28.48 1.4999988 26.999998
vertex -28.48 -1.5000012 26.999998
vertex -28.48 -1.5000012 29.999998
endloop
endfacet
facet normal -1.0 -4.371139E-8 0.0
outer loop
vertex -28.48 1.4999988 26.999998
vertex -28.48 -1.5000012 29.999998
vertex -28.48 1.4999988 29.999998
endloop
endfacet
facet normal 0.0 0.0 0.99999994
outer loop
vertex -28.48 -1.5000012 29.999998
vertex -1.4999998 -1.5000001 29.999998
vertex -1.5 1.4999999 29.999998
endloop
endfacet
facet normal 0.0 0.0 0.99999994
outer loop
vertex -28.48 -1.5000012 29.999998
vertex -1.5 1.4999999 29.999998
vertex -28.48 1.4999988 29.999998
endloop
endfacet
facet normal -0.0 0.0 -0.99999994
outer loop
vertex -1.5 1.4999999 0.0
vertex 1.5 -1.4999999 0.0
vertex -1.4999998 -1.5000001 0.0
endloop
endfacet
facet normal -0.0 0.0 -0.99999994
outer loop
vertex -1.5 1.4999999 29.999998
vertex 1.5 -1.4999999 29.999998
vertex -1.4999998 -1.5000001 29.999998
endloop
endfacet
endsolid export/result
